<svg width="1080" height="1080" viewBox="132.35000610351562 7.410160064697266 1080 1080" fill="none" xmlns="http://www.w3.org/2000/svg" xmlns:xlink="http://www.w3.org/1999/xlink">
<g clip-path="url(#clip0)">
<path d="M1212.35 7.41016H132.35V1087.41H1212.35V7.41016Z" fill="#F2F7FA"/>
<path d="M248.801 1022.45V1046.66H244.601V1027.69H244.531L237.021 1046.66H234.231L226.531 1027.69H226.481V1046.66H222.601V1022.45H228.631L235.591 1040.39H235.691L243.031 1022.45H248.801ZM252.311 1024.29C252.311 1023.61 252.551 1023.05 253.041 1022.59C253.531 1022.13 254.111 1021.91 254.791 1021.91C255.511 1021.91 256.111 1022.14 256.581 1022.61C257.051 1023.08 257.291 1023.64 257.291 1024.29C257.291 1024.95 257.051 1025.51 256.561 1025.96C256.081 1026.41 255.491 1026.64 254.791 1026.64C254.091 1026.64 253.501 1026.41 253.031 1025.96C252.551 1025.49 252.311 1024.94 252.311 1024.29ZM256.821 1029.3V1046.65H252.741V1029.3H256.821ZM269.211 1043.68C269.821 1043.68 270.491 1043.54 271.221 1043.26C271.951 1042.98 272.631 1042.61 273.251 1042.15V1045.95C272.601 1046.32 271.861 1046.6 271.031 1046.79C270.201 1046.98 269.291 1047.08 268.301 1047.08C265.751 1047.08 263.671 1046.27 262.071 1044.66C260.471 1043.05 259.671 1040.98 259.671 1038.47C259.671 1035.68 260.491 1033.38 262.121 1031.57C263.751 1029.76 266.061 1028.86 269.061 1028.86C269.831 1028.86 270.601 1028.96 271.381 1029.16C272.161 1029.36 272.781 1029.58 273.251 1029.84V1033.76C272.621 1033.3 271.981 1032.94 271.321 1032.69C270.661 1032.44 269.991 1032.31 269.301 1032.31C267.691 1032.31 266.391 1032.83 265.401 1033.88C264.411 1034.93 263.911 1036.34 263.911 1038.12C263.911 1039.88 264.391 1041.24 265.341 1042.22C266.291 1043.19 267.581 1043.68 269.211 1043.68ZM284.881 1029.01C285.211 1029.01 285.501 1029.03 285.761 1029.08C286.021 1029.12 286.241 1029.18 286.421 1029.25V1033.39C286.211 1033.23 285.891 1033.08 285.481 1032.94C285.071 1032.8 284.571 1032.73 283.991 1032.73C282.991 1032.73 282.141 1033.15 281.451 1034C280.761 1034.84 280.411 1036.14 280.411 1037.9V1046.66H276.321V1029.31H280.411V1032.04H280.481C280.851 1031.09 281.411 1030.36 282.171 1029.82C282.911 1029.28 283.821 1029.01 284.881 1029.01ZM286.631 1038.23C286.631 1035.36 287.441 1033.09 289.061 1031.41C290.681 1029.73 292.931 1028.89 295.811 1028.89C298.521 1028.89 300.641 1029.7 302.171 1031.31C303.691 1032.93 304.461 1035.11 304.461 1037.85C304.461 1040.66 303.651 1042.9 302.031 1044.57C300.411 1046.24 298.201 1047.07 295.411 1047.07C292.721 1047.07 290.581 1046.28 289.001 1044.7C287.421 1043.12 286.631 1040.96 286.631 1038.23ZM290.891 1038.09C290.891 1039.9 291.301 1041.29 292.121 1042.24C292.941 1043.2 294.121 1043.67 295.651 1043.67C297.141 1043.67 298.271 1043.19 299.041 1042.24C299.821 1041.28 300.201 1039.87 300.201 1037.99C300.201 1036.12 299.801 1034.71 298.991 1033.76C298.191 1032.81 297.061 1032.33 295.611 1032.33C294.111 1032.33 292.951 1032.83 292.121 1033.82C291.301 1034.83 290.891 1036.25 290.891 1038.09ZM310.541 1033.86C310.541 1034.45 310.731 1034.9 311.101 1035.24C311.471 1035.57 312.291 1035.99 313.561 1036.5C315.191 1037.15 316.341 1037.89 317.001 1038.7C317.661 1039.52 317.991 1040.5 317.991 1041.66C317.991 1043.29 317.361 1044.6 316.111 1045.59C314.861 1046.58 313.161 1047.08 311.021 1047.08C310.301 1047.08 309.501 1046.99 308.631 1046.82C307.761 1046.65 307.021 1046.42 306.411 1046.15V1042.13C307.151 1042.65 307.951 1043.06 308.811 1043.36C309.671 1043.66 310.441 1043.82 311.141 1043.82C312.061 1043.82 312.741 1043.69 313.181 1043.43C313.621 1043.17 313.841 1042.74 313.841 1042.13C313.841 1041.57 313.611 1041.09 313.161 1040.7C312.701 1040.31 311.841 1039.86 310.571 1039.36C309.061 1038.73 307.991 1038.02 307.361 1037.23C306.731 1036.44 306.411 1035.44 306.411 1034.22C306.411 1032.66 307.031 1031.37 308.281 1030.36C309.521 1029.35 311.141 1028.85 313.121 1028.85C313.731 1028.85 314.411 1028.92 315.161 1029.05C315.911 1029.19 316.541 1029.36 317.051 1029.57V1033.45C316.511 1033.09 315.881 1032.78 315.161 1032.52C314.441 1032.26 313.721 1032.13 313.021 1032.13C312.241 1032.13 311.641 1032.28 311.211 1032.59C310.751 1032.91 310.541 1033.33 310.541 1033.86ZM319.741 1038.23C319.741 1035.36 320.551 1033.09 322.171 1031.41C323.791 1029.73 326.041 1028.89 328.921 1028.89C331.631 1028.89 333.751 1029.7 335.281 1031.31C336.801 1032.93 337.571 1035.11 337.571 1037.85C337.571 1040.66 336.761 1042.9 335.141 1044.57C333.521 1046.24 331.311 1047.07 328.521 1047.07C325.831 1047.07 323.691 1046.28 322.111 1044.7C320.531 1043.12 319.741 1040.96 319.741 1038.23ZM323.991 1038.09C323.991 1039.9 324.401 1041.29 325.221 1042.24C326.041 1043.2 327.221 1043.67 328.751 1043.67C330.241 1043.67 331.371 1043.19 332.141 1042.24C332.921 1041.28 333.301 1039.87 333.301 1037.99C333.301 1036.12 332.901 1034.71 332.091 1033.76C331.291 1032.81 330.161 1032.33 328.711 1032.33C327.211 1032.33 326.051 1032.83 325.221 1033.82C324.401 1034.83 323.991 1036.25 323.991 1038.09ZM351.111 1032.64H345.031V1046.65H340.891V1032.64H337.991V1029.3H340.891V1026.89C340.891 1025.07 341.481 1023.57 342.671 1022.41C343.861 1021.25 345.381 1020.66 347.241 1020.66C347.741 1020.66 348.171 1020.69 348.561 1020.74C348.941 1020.79 349.281 1020.87 349.571 1020.97V1024.5C349.431 1024.42 349.201 1024.33 348.861 1024.21C348.521 1024.1 348.131 1024.04 347.701 1024.04C346.841 1024.04 346.191 1024.31 345.721 1024.84C345.261 1025.37 345.031 1026.17 345.031 1027.21V1029.3H351.111V1025.4L355.211 1024.15V1029.3H359.351V1032.64H355.211V1040.76C355.211 1041.83 355.401 1042.58 355.791 1043.02C356.181 1043.46 356.791 1043.68 357.621 1043.68C357.861 1043.68 358.141 1043.62 358.471 1043.51C358.801 1043.4 359.091 1043.26 359.341 1043.1V1046.48C359.081 1046.63 358.651 1046.76 358.051 1046.89C357.451 1047.01 356.851 1047.08 356.271 1047.08C354.551 1047.08 353.261 1046.62 352.401 1045.7C351.541 1044.78 351.111 1043.4 351.111 1041.56V1032.64Z" fill="#77787B"/>
<path d="M189.32 1014.38H170.15V1033.55H189.32V1014.38Z" fill="#F26522"/>
<path d="M210.49 1014.38H191.32V1033.55H210.49V1014.38Z" fill="#8DC63F"/>
<path d="M189.32 1035.55H170.15V1054.72H189.32V1035.55Z" fill="#00AEEF"/>
<path d="M210.49 1035.55H191.32V1054.72H210.49V1035.55Z" fill="#FFC20E"/>
<path d="M57.6904 100C57.6904 100 159.28 77.3603 210.54 146.27C265.41 219.8 310.38 240.28 310.38 240.28C310.38 240.28 229.02 265.89 181.34 224.95C133.29 184.07 142.64 132.95 57.6904 100Z" fill="#9BC0D7"/>
<path d="M239.13 221.49C215.03 214.75 202.89 197.91 189.03 178.14C178.92 163.77 167.23 147.25 148.64 132.73C98.56 94.2102 1.01 100.45 0.22 100.59L0 94.5902C3.98 94.3102 100.76 88.2003 152.67 128.02C172.11 142.8 183.86 159.71 194.43 174.41C207.69 193.07 218.92 209.26 240.86 215.17L239.13 221.49Z" fill="#EF90DD"/>
<path d="M1219.41 240.19C1219.41 240.19 1158.92 296.81 1091.43 236.79C1091.43 236.8 1149.92 171.63 1219.41 240.19Z" fill="#9BC0D7"/>
<path d="M1245.47 277.86C1245.47 277.86 1279.8 361.24 1203.2 398.66C1202.56 398.44 1165.05 313.94 1245.47 277.86Z" fill="#9BC0D7"/>
<path d="M1183.98 0H1146.96V37.02H1183.98V0Z" fill="#EF90DD"/>
<path d="M1147.73 36.25H1110.71V73.27H1147.73V36.25Z" fill="#9BC0D7"/>
<path d="M601.35 1148.28C602.77 1157.48 627.9 1155.01 651.98 1152.53C683.84 1149.34 697.3 1144.74 725.62 1136.24C737.3 1132.7 751.11 1126.68 751.11 1126.68C751.11 1126.68 723.14 1125.26 704.73 1119.6C691.28 1115.35 678.89 1109.69 670.03 1099.07C659.06 1085.97 650.91 1071.81 642.42 1073.93C632.86 1076.76 634.28 1090.22 632.86 1092.34C632.15 1093.76 630.74 1094.46 627.91 1092.34C622.95 1088.09 618.35 1083.14 614.81 1077.82C605.25 1064.01 593.92 1039.58 584.36 1041C573.38 1042.77 575.86 1058.7 574.45 1062.6C572.68 1066.49 567.01 1070.74 561.35 1059.41C556.04 1049.14 552.14 1034.98 547.19 1026.13C542.24 1017.28 530.2 1006.66 524.53 1012.68C518.86 1018.7 528.78 1035.34 517.8 1034.28C511.78 1033.93 495.14 1016.58 486.65 1008.08C475.67 996.75 460.1 989.67 451.6 1001.71C441.69 1018 473.19 1049.15 485.94 1059.06C498.68 1068.97 502.93 1073.22 496.21 1076.05C477.8 1081.71 474.61 1089.5 489.13 1096.23C503.65 1102.96 525.6 1104.02 538.34 1106.14C550.73 1108.26 553.21 1111.45 551.44 1114.64C549.32 1117.83 535.51 1120.3 535.15 1125.26C534.8 1130.22 544.36 1139.07 580.47 1138.01C591.09 1138.01 606.31 1135.18 608.09 1135.18C610.57 1134.83 613.75 1136.24 612.69 1138.01C610.91 1141.2 601.35 1143.32 601.35 1148.28C601.35 1148.63 601.35 1148.28 601.35 1148.28Z" fill="#9BC0D7"/>
<path d="M625.08 1124.56C547.55 1100.13 490.9 1041.01 490.19 1040.3L494.08 1036.76C494.79 1037.47 550.37 1095.88 626.84 1119.61C691.98 1139.79 774.12 1120.32 790.05 1116.07L791.47 1121.38C780.49 1124.21 739.43 1134.13 693.76 1134.13C671.45 1134.12 647.38 1131.64 625.08 1124.56Z" fill="#EF90DD"/>
<path d="M123.29 182.67C123.29 182.67 141.82 187.16 146.26 232.24C148.08 252.08 162.02 268.06 162.02 268.06C162.02 268.06 129.18 266.59 120.23 243.84C113.39 226.73 125.04 206.06 123.29 182.67Z" fill="#9BC0D7"/>
<path d="M1160.63 932.26H1133.2V959.69H1160.63V932.26Z" fill="#904B67"/>
<path d="M1133.77 959.12H1106.34V986.55H1133.77V959.12Z" fill="#EF90DD"/>
<path d="M760.271 1036.46V1028.64H755.271V1050.81H760.271V1048.47C761.181 1049.94 762.9 1051.05 765.3 1051.05C769.31 1051.05 772.49 1047.69 772.49 1042.42C772.49 1037.15 769.33 1033.85 765.3 1033.85C762.96 1033.86 761.181 1034.97 760.271 1036.46ZM767.401 1042.43C767.401 1045.1 765.7 1046.59 763.8 1046.59C761.93 1046.59 760.23 1045.12 760.23 1042.46C760.23 1039.79 761.93 1038.33 763.8 1038.33C765.71 1038.32 767.401 1039.76 767.401 1042.43Z" fill="black"/>
<path d="M780.12 1043.05C780.12 1040.17 781.49 1039.34 783.86 1039.34H785.23V1033.92C783.04 1033.92 781.25 1035.12 780.11 1036.89V1034.1H775.11V1050.82H780.11V1043.05H780.12Z" fill="black"/>
<path d="M787.62 1050.81H792.62V1034.09H787.62V1050.81ZM790.14 1032.36C791.89 1032.36 793.09 1031.13 793.09 1029.6C793.09 1028.04 791.89 1026.81 790.14 1026.81C788.36 1026.81 787.16 1028.04 787.16 1029.6C787.16 1031.13 788.35 1032.36 790.14 1032.36Z" fill="black"/>
<path d="M796.25 1050.81H801.25V1043.8L806.22 1050.81H812.42L805.58 1042.48L812.36 1034.09H806.19L801.25 1040.89V1028.64H796.25V1050.81Z" fill="black"/>
<path d="M814.32 1050.81H819.32V1028.64H814.32V1050.81Z" fill="black"/>
<path d="M729.19 1049.37L734.24 1046.38V1040.4L729.19 1037.41L724.11 1040.4V1046.38L729.19 1049.37Z" fill="#78C8EB"/>
<path d="M734.221 1052.36L739.301 1049.4L739.331 1043.39L734.251 1040.4L729.171 1043.36L729.141 1049.37L734.221 1052.36Z" fill="#88C299"/>
<path d="M744.381 1052.42L749.461 1049.43L749.491 1043.45L744.411 1040.43L739.331 1043.42L739.301 1049.4L744.381 1052.42Z" fill="#F5D55C"/>
<path d="M739.301 1055.38L744.381 1052.42V1046.41L739.331 1043.39L734.251 1046.38L734.221 1052.36L739.301 1055.38Z" fill="#D9396A"/>
<path d="M744.38 1046.41L749.46 1043.45L749.49 1037.44L744.41 1034.42L739.33 1037.41V1043.42L744.38 1046.41Z" fill="#A43F65"/>
<path d="M734.27 1034.45L739.35 1031.46V1025.48L734.27 1022.49L729.19 1025.48V1031.46L734.27 1034.45Z" fill="#F5D55C"/>
<path d="M739.36 1037.44L744.41 1034.45V1028.47L739.36 1025.48L734.28 1028.47V1034.45L739.36 1037.44Z" fill="#88C299"/>
<path d="M744.41 1040.43L749.49 1037.44V1031.46L744.41 1028.47L739.36 1031.46V1037.44L744.41 1040.43Z" fill="#78C8EB"/>
<path d="M729.19 1043.39L734.24 1040.4V1034.42L729.19 1031.43L724.11 1034.42V1040.4L729.19 1043.39Z" fill="#A43F65"/>
<path d="M729.221 1037.44L734.271 1034.45V1028.47L729.221 1025.48L724.141 1028.47V1034.45L729.221 1037.44Z" fill="#D9396A"/>
<path d="M840.231 1044.38C840.531 1044.22 840.851 1044.27 841.171 1044.27C842.531 1044.27 843.891 1044.28 845.251 1044.26C845.671 1044.25 845.901 1044.36 846.051 1044.8C846.461 1045.99 848.411 1046.28 849.221 1045.31C849.651 1044.79 849.541 1044.24 848.911 1043.87C848.221 1043.47 847.451 1043.33 846.691 1043.14C845.711 1042.9 844.721 1042.66 843.791 1042.26C841.481 1041.28 840.391 1039.64 840.431 1037.25C840.471 1034.74 841.681 1032.89 844.001 1032.06C846.421 1031.18 848.891 1031.16 851.291 1032.14C853.471 1033.03 854.511 1034.77 854.701 1037.06C854.731 1037.46 854.571 1037.65 854.141 1037.64C852.641 1037.63 851.141 1037.63 849.641 1037.64C849.321 1037.64 849.121 1037.54 849.051 1037.21C848.861 1036.28 847.421 1035.98 846.541 1036.51C845.981 1036.85 846.011 1037.46 846.601 1037.83C847.271 1038.25 848.061 1038.38 848.811 1038.58C849.831 1038.85 850.861 1039.11 851.841 1039.52C854.031 1040.44 855.271 1042.02 855.301 1044.42C855.331 1046.94 854.301 1048.9 851.961 1049.96C849.371 1051.13 846.681 1051.14 844.021 1050.13C842.221 1049.44 841.011 1048.14 840.461 1046.28C840.411 1046.1 840.461 1045.85 840.221 1045.75C840.231 1045.29 840.231 1044.84 840.231 1044.38Z" fill="#0D2C54"/>
<path d="M998.2 1050.98C997.76 1050.7 997.24 1050.8 996.76 1050.72C993.63 1050.21 991.63 1048.27 991.18 1045.28C991.05 1044.44 991.12 1044.36 991.95 1044.36C993.38 1044.36 994.81 1044.37 996.24 1044.36C996.62 1044.36 996.88 1044.4 996.98 1044.86C997.11 1045.49 997.64 1045.79 998.24 1045.88C998.95 1045.99 999.64 1045.92 1000.16 1045.35C1000.59 1044.88 1000.48 1044.32 999.91 1043.95C999.32 1043.57 998.63 1043.44 997.96 1043.27C996.71 1042.95 995.45 1042.68 994.29 1042.1C992.37 1041.15 991.41 1039.63 991.39 1037.49C991.36 1035.23 992.19 1033.42 994.27 1032.42C996.97 1031.13 999.77 1031.12 1002.51 1032.31C1004.57 1033.21 1005.47 1034.97 1005.66 1037.13C1005.69 1037.47 1005.56 1037.65 1005.2 1037.65C1003.63 1037.65 1002.06 1037.65 1000.49 1037.65C1000.18 1037.65 1000.08 1037.48 999.98 1037.22C999.62 1036.32 998.15 1035.99 997.39 1036.61C996.95 1036.97 997 1037.53 997.53 1037.86C998.16 1038.26 998.89 1038.4 999.61 1038.59C1000.72 1038.88 1001.84 1039.16 1002.9 1039.62C1004.99 1040.53 1006.2 1042.07 1006.25 1044.38C1006.3 1046.8 1005.38 1048.7 1003.18 1049.89C1002.04 1050.5 1000.81 1050.76 999.53 1050.85C999.32 1050.87 999.07 1050.72 998.91 1050.98C998.66 1050.98 998.43 1050.98 998.2 1050.98Z" fill="#0D2C54"/>
<path d="M914.901 1039.1C914.901 1036.81 914.921 1034.52 914.891 1032.23C914.881 1031.66 915.051 1031.47 915.631 1031.49C916.971 1031.53 918.311 1031.52 919.651 1031.49C920.141 1031.48 920.341 1031.61 920.341 1032.14C920.321 1038.15 920.321 1044.16 920.341 1050.17C920.341 1050.73 920.151 1050.88 919.611 1050.87C918.501 1050.84 917.391 1050.84 916.291 1050.87C915.861 1050.88 915.631 1050.72 915.431 1050.35C914.141 1048.03 912.821 1045.72 911.511 1043.4C911.401 1043.21 911.281 1043.03 911.071 1042.7C911.071 1045.26 911.051 1047.64 911.081 1050.01C911.091 1050.66 910.921 1050.9 910.231 1050.87C908.991 1050.82 907.741 1050.82 906.491 1050.87C905.841 1050.89 905.611 1050.72 905.621 1050.03C905.651 1045.83 905.621 1041.64 905.651 1037.44C905.651 1036.77 905.461 1036.57 904.791 1036.58C902.251 1036.61 899.711 1036.61 897.171 1036.58C896.541 1036.57 896.321 1036.77 896.341 1037.41C896.391 1038.81 896.201 1038.7 897.661 1038.7C898.491 1038.7 899.321 1038.72 900.151 1038.69C900.601 1038.68 900.831 1038.79 900.821 1039.3C900.791 1040.54 900.801 1041.78 900.821 1043.02C900.831 1043.45 900.661 1043.58 900.251 1043.57C899.211 1043.55 898.171 1043.58 897.131 1043.56C896.581 1043.55 896.331 1043.7 896.341 1044.3C896.381 1045.91 896.151 1045.72 897.791 1045.72C899.451 1045.73 901.121 1045.74 902.781 1045.71C903.331 1045.7 903.511 1045.88 903.501 1046.42C903.471 1047.68 903.471 1048.94 903.501 1050.2C903.511 1050.72 903.311 1050.86 902.801 1050.86C898.941 1050.84 895.091 1050.84 891.231 1050.86C890.681 1050.86 890.511 1050.7 890.521 1050.15C890.541 1046 890.531 1041.85 890.531 1037.7C890.531 1037.37 890.601 1037.08 890.781 1036.8C891.771 1035.2 892.761 1033.6 893.721 1031.99C893.931 1031.63 894.181 1031.49 894.611 1031.49C899.711 1031.5 904.821 1031.5 909.921 1031.49C910.341 1031.49 910.581 1031.62 910.791 1032C911.971 1034.15 913.181 1036.28 914.381 1038.42C914.511 1038.66 914.651 1038.89 914.781 1039.13C914.811 1039.12 914.851 1039.11 914.901 1039.1Z" fill="#0D2C54"/>
<path d="M962.001 1037.57C963.201 1035.57 964.401 1033.57 965.671 1031.45C969.121 1037.08 972.511 1042.62 976.021 1048.35C976.021 1047.92 976.021 1047.69 976.021 1047.46C976.021 1042.44 976.021 1037.41 976.021 1032.39C976.021 1031.5 976.021 1031.5 976.941 1031.5C978.211 1031.5 979.481 1031.52 980.751 1031.49C981.321 1031.47 981.521 1031.65 981.511 1032.23C981.481 1034.06 981.501 1035.9 981.501 1037.73C981.501 1037.95 981.501 1038.17 981.501 1038.39C981.551 1038.4 981.591 1038.42 981.641 1038.43C981.881 1038.03 982.131 1037.64 982.361 1037.23C983.371 1035.51 984.391 1033.79 985.381 1032.06C985.611 1031.66 985.861 1031.46 986.351 1031.48C987.781 1031.52 989.211 1031.49 990.641 1031.49C991.351 1031.49 991.391 1031.56 991.031 1032.16C989.411 1034.93 987.801 1037.7 986.161 1040.46C985.871 1040.95 985.841 1041.31 986.171 1041.82C988.001 1044.57 989.781 1047.35 991.581 1050.13C991.701 1050.31 991.941 1050.5 991.791 1050.74C991.651 1050.97 991.371 1050.86 991.151 1050.86C989.561 1050.87 987.961 1050.85 986.371 1050.87C985.901 1050.88 985.631 1050.73 985.391 1050.31C984.171 1048.18 982.921 1046.08 981.661 1043.93C981.411 1044.12 981.511 1044.37 981.511 1044.57C981.501 1046.4 981.491 1048.24 981.521 1050.07C981.531 1050.65 981.381 1050.88 980.751 1050.87C978.281 1050.84 975.811 1050.86 973.341 1050.86C971.231 1050.86 969.631 1049.97 968.541 1048.16C967.611 1046.61 966.631 1045.09 965.681 1043.55C964.491 1041.53 963.271 1039.54 962.001 1037.57Z" fill="#0D2C54"/>
<path d="M883.88 1044.8C882.68 1046.8 881.48 1048.81 880.23 1050.88C880.08 1050.68 879.96 1050.53 879.86 1050.37C877.17 1045.97 874.47 1041.57 871.79 1037.16C871.55 1036.76 871.27 1036.59 870.8 1036.6C868.38 1036.62 865.95 1036.63 863.53 1036.6C862.91 1036.59 862.67 1036.76 862.69 1037.42C862.73 1038.72 862.7 1038.72 864 1038.72C864.85 1038.72 865.71 1038.74 866.56 1038.71C867 1038.7 867.19 1038.85 867.18 1039.3C867.16 1040.54 867.16 1041.78 867.18 1043.02C867.19 1043.49 866.98 1043.6 866.55 1043.59C865.49 1043.57 864.43 1043.6 863.36 1043.58C862.84 1043.57 862.67 1043.77 862.68 1044.27C862.71 1046.01 862.52 1045.75 864.13 1045.76C865.77 1045.77 867.41 1045.78 869.05 1045.75C869.64 1045.74 869.88 1045.89 869.86 1046.52C869.82 1047.76 869.83 1049 869.86 1050.24C869.87 1050.71 869.71 1050.89 869.22 1050.89C865.32 1050.88 861.41 1050.88 857.51 1050.89C857.03 1050.89 856.86 1050.73 856.86 1050.25C856.87 1044.22 856.87 1038.18 856.86 1032.15C856.86 1031.67 857.03 1031.51 857.51 1031.51C862.64 1031.52 867.76 1031.49 872.89 1031.53C874.78 1031.55 876.23 1032.44 877.24 1034.04C878.24 1035.63 879.23 1037.23 880.23 1038.82C881.38 1040.85 882.62 1042.83 883.88 1044.8Z" fill="#0D2C54"/>
<path d="M925.7 1041.18C925.7 1038.2 925.7 1035.22 925.7 1032.23C925.7 1031.89 925.63 1031.5 926.17 1031.5C928.96 1031.51 931.76 1031.41 934.55 1031.57C938.46 1031.79 941.17 1035.17 940.76 1039.28C940.36 1043.31 937.54 1045.75 933.46 1045.75C931.47 1045.75 931.47 1045.75 931.47 1047.73C931.47 1048.56 931.45 1049.38 931.48 1050.21C931.5 1050.73 931.29 1050.88 930.79 1050.88C929.31 1050.85 927.83 1050.85 926.36 1050.88C925.83 1050.89 925.69 1050.69 925.69 1050.2C925.71 1047.19 925.7 1044.19 925.7 1041.18ZM931.48 1038.59C931.48 1040.65 931.54 1040.7 933.46 1040.41C934.43 1040.26 934.97 1039.49 934.87 1038.39C934.76 1037.17 933.98 1036.71 932.08 1036.82C930.97 1036.88 931.68 1037.77 931.49 1038.25C931.45 1038.34 931.48 1038.47 931.48 1038.59Z" fill="#0D2C54"/>
<path d="M942.38 1041.14C942.38 1038.18 942.4 1035.23 942.37 1032.27C942.36 1031.65 942.57 1031.49 943.17 1031.5C946.98 1031.52 950.79 1031.52 954.59 1031.5C955.2 1031.5 955.4 1031.7 955.38 1032.3C955.34 1033.49 955.34 1034.68 955.38 1035.88C955.4 1036.47 955.17 1036.63 954.61 1036.62C952.76 1036.6 950.92 1036.64 949.07 1036.6C948.41 1036.59 948.1 1036.76 948.2 1037.45C948.22 1037.58 948.22 1037.73 948.2 1037.86C948.11 1038.52 948.37 1038.77 949.05 1038.73C950.04 1038.68 951.03 1038.73 952.03 1038.71C952.5 1038.7 952.7 1038.84 952.7 1039.33C952.68 1040.54 952.67 1041.76 952.7 1042.97C952.71 1043.47 952.51 1043.6 952.05 1043.58C950.99 1043.55 949.93 1043.58 948.87 1043.57C948.4 1043.56 948.2 1043.74 948.21 1044.21C948.24 1046 948.01 1045.71 949.69 1045.72C951.21 1045.73 952.74 1045.73 954.26 1045.72C954.81 1045.72 954.92 1045.88 954.62 1046.36C953.77 1047.72 952.93 1049.09 952.11 1050.46C951.93 1050.75 951.73 1050.87 951.39 1050.87C948.6 1050.86 945.8 1050.85 943.01 1050.87C942.44 1050.87 942.38 1050.59 942.38 1050.14C942.38 1047.15 942.38 1044.14 942.38 1041.14Z" fill="#0D2C54"/>
<path d="M883.88 1044.8C882.62 1042.83 881.38 1040.85 880.23 1038.82C881.24 1037.15 882.231 1035.47 883.281 1033.83C884.261 1032.31 885.731 1031.57 887.531 1031.51C888.801 1031.47 890.071 1031.51 891.341 1031.5C891.811 1031.5 892.011 1031.61 891.711 1032.09C889.131 1036.3 886.55 1040.51 883.98 1044.71C883.96 1044.74 883.91 1044.77 883.88 1044.8Z" fill="#03A4EA"/>
<path d="M962.001 1037.57C963.271 1039.53 964.491 1041.53 965.661 1043.55C964.661 1045.19 963.681 1046.85 962.651 1048.47C961.711 1049.94 960.331 1050.74 958.581 1050.83C957.221 1050.9 955.861 1050.85 954.501 1050.86C954.071 1050.86 953.861 1050.77 954.141 1050.31C956.771 1046.07 959.391 1041.82 962.001 1037.57Z" fill="#026FFE"/>
<path d="M1039.11 1039.34C1042.28 1039.34 1040.44 1035.16 1036.37 1035.29C1033.62 1035.38 1031.89 1037.41 1031.68 1039.34H1039.11ZM1039.73 1042.54H1031.46C1031.46 1044.38 1033.15 1046.93 1036.72 1046.93C1038.17 1046.93 1039.98 1046.14 1040.76 1044.91C1041.07 1044.43 1041.15 1044.13 1042.14 1044.14C1042.34 1044.14 1043.96 1044.15 1044.21 1044.15C1044.88 1044.15 1045 1044.77 1044.77 1045.41C1043.86 1048.03 1040.67 1050.64 1036.58 1050.64C1030.64 1050.64 1027.1 1046.02 1027.1 1041.12C1027.1 1035.06 1031.79 1031.7 1036.53 1031.7C1042.39 1031.7 1045.1 1036.24 1045.1 1039.18C1045.1 1042.65 1041.38 1042.54 1039.73 1042.54Z" fill="#312374"/>
<path d="M1074.7 1039.34C1077.87 1039.34 1076.03 1035.16 1071.96 1035.29C1069.21 1035.38 1067.48 1037.41 1067.26 1039.34H1074.7ZM1075.32 1042.54H1067.05C1067.05 1044.38 1068.74 1046.93 1072.31 1046.93C1073.76 1046.93 1075.57 1046.14 1076.35 1044.91C1076.66 1044.43 1076.74 1044.13 1077.73 1044.14C1077.93 1044.14 1079.55 1044.15 1079.8 1044.15C1080.47 1044.15 1080.59 1044.77 1080.36 1045.41C1079.45 1048.03 1076.26 1050.64 1072.17 1050.64C1066.23 1050.64 1062.69 1046.02 1062.69 1041.12C1062.69 1035.06 1067.38 1031.7 1072.12 1031.7C1077.98 1031.7 1080.69 1036.24 1080.69 1039.18C1080.69 1042.65 1076.97 1042.54 1075.32 1042.54Z" fill="#312374"/>
<path d="M1108.44 1044.94C1108.44 1044.84 1108.44 1043.87 1108.43 1043.24V1036.24C1108.43 1035.95 1108.66 1035.72 1108.95 1035.72H1110.86C1111.25 1035.72 1111.57 1035.4 1111.57 1035.01V1032.85C1111.57 1032.46 1111.25 1032.14 1110.86 1032.14H1108.43L1108.4 1029.31C1108.4 1029.1 1108.23 1028.93 1108.02 1028.93H1104.59C1104.39 1028.93 1104.24 1029.09 1104.24 1029.29C1104.24 1031.29 1104.23 1032.14 1104.23 1032.14V1036.22V1036.23C1104.23 1036.55 1104.23 1037.3 1104.23 1037.49V1043.83C1104.24 1044.23 1104.24 1044.63 1104.26 1045.03C1104.39 1048.7 1106.47 1051.2 1111.18 1050.19C1111.5 1050.12 1111.74 1049.84 1111.74 1049.51V1047.17C1111.74 1046.94 1111.52 1046.78 1111.31 1046.84C1109.66 1047.28 1108.47 1046.64 1108.44 1044.94Z" fill="#312374"/>
<path d="M1092.25 1031.69C1086.6 1031.69 1083.62 1035.39 1083.6 1040.63C1083.6 1040.67 1083.6 1040.71 1083.6 1040.76V1049.07C1083.6 1049.66 1084.08 1050.14 1084.67 1050.14H1086.71C1087.3 1050.14 1087.78 1049.66 1087.78 1049.07V1049.03V1040.75C1087.75 1037.58 1089.2 1035.44 1092.15 1035.44C1095.1 1035.44 1096.61 1037.58 1096.62 1040.68C1096.62 1040.7 1096.62 1040.73 1096.62 1040.75H1096.61V1041.12V1049.02V1049.07C1096.61 1049.66 1097.09 1050.14 1097.68 1050.14H1099.72C1100.31 1050.14 1100.79 1049.66 1100.79 1049.07V1041.14C1100.8 1040.97 1100.8 1040.81 1100.8 1040.64C1100.73 1035.49 1097.9 1031.69 1092.25 1031.69Z" fill="#312374"/>
<path d="M1057.23 1032.93C1056.16 1036.17 1055.11 1039.53 1053.94 1043.09C1052.77 1039.54 1051.71 1036.17 1050.65 1032.93C1050.49 1032.46 1050.06 1032.14 1049.56 1032.14H1046.86C1046.41 1032.14 1046.09 1032.59 1046.25 1033.02C1046.93 1034.91 1047.62 1036.84 1048.3 1038.73C1049.51 1042.08 1050.77 1045.54 1051.88 1048.92C1052.27 1050.1 1053.01 1050.14 1053.94 1050.14C1054.87 1050.14 1055.61 1050.1 1056 1048.92C1057.11 1045.54 1058.37 1042.08 1059.58 1038.73C1060.26 1036.84 1060.95 1034.91 1061.63 1033.02C1061.78 1032.59 1061.47 1032.14 1061.02 1032.14H1058.32C1057.83 1032.14 1057.39 1032.45 1057.23 1032.93Z" fill="#312374"/>
<path d="M1167.28 1046.71C1164.32 1046.71 1161.95 1044.47 1161.95 1041.37C1161.95 1037.73 1164.03 1035.76 1167.29 1035.76C1170.21 1035.76 1172.46 1037.73 1172.46 1041.3C1172.46 1044.71 1170.05 1046.71 1167.28 1046.71ZM1167.43 1031.85C1161.7 1031.63 1157.75 1035.6 1157.75 1041.25C1157.75 1041.29 1157.75 1041.33 1157.75 1041.38V1050.98V1056.01C1157.75 1056.46 1158.12 1056.83 1158.57 1056.83H1161.09C1161.54 1056.83 1161.91 1056.46 1161.91 1056.01V1050.98V1048.51C1163.24 1049.88 1165.33 1050.72 1167.32 1050.71C1172.67 1050.7 1176.67 1046.48 1176.64 1041.25C1176.63 1036.11 1172.63 1032.05 1167.43 1031.85Z" fill="#312374"/>
<path d="M1150.96 1041.3C1150.95 1038.2 1148.43 1035.55 1145.51 1035.6C1142.5 1035.64 1140.13 1038.2 1140.17 1041.37C1140.2 1044.47 1142.54 1046.92 1145.5 1046.96C1148.45 1047 1150.96 1044.4 1150.96 1041.3ZM1145.64 1031.85C1150.84 1031.88 1155.13 1036.11 1155.16 1041.25C1155.19 1046.48 1150.9 1050.7 1145.55 1050.71C1140.22 1050.72 1135.95 1046.5 1135.97 1041.25C1135.98 1036.01 1140.3 1031.82 1145.64 1031.85Z" fill="#312374"/>
<path d="M1124.21 1046.71C1121.25 1046.71 1118.88 1044.47 1118.88 1041.37C1118.88 1037.73 1120.96 1035.76 1124.22 1035.76C1127.14 1035.76 1129.39 1037.73 1129.39 1041.3C1129.39 1044.71 1126.98 1046.71 1124.21 1046.71ZM1124.36 1031.85C1118.63 1031.63 1114.68 1035.6 1114.68 1041.25C1114.68 1041.29 1114.68 1041.33 1114.68 1041.38V1050.98V1056.01C1114.68 1056.46 1115.05 1056.83 1115.5 1056.83H1118.02C1118.47 1056.83 1118.84 1056.46 1118.84 1056.01V1050.98V1048.51C1120.17 1049.88 1122.26 1050.72 1124.25 1050.71C1129.6 1050.7 1133.6 1046.48 1133.57 1041.25C1133.56 1036.11 1129.55 1032.05 1124.36 1031.85Z" fill="#312374"/>
<path d="M814.15 114.97C814.34 114.97 814.5 114.81 814.5 114.62C814.5 114.42 814.34 114.27 814.15 114.27C813.95 114.27 813.8 114.43 813.8 114.62C813.79 114.82 813.95 114.97 814.15 114.97Z" fill="#EF90DD"/>
<path d="M774.581 115.33C774.771 115.33 774.93 115.17 774.93 114.98C774.93 114.78 774.771 114.63 774.581 114.63C774.381 114.63 774.23 114.79 774.23 114.98C774.23 115.17 774.391 115.33 774.581 115.33Z" fill="#EF90DD"/>
<path d="M832.83 70.0499C832.83 70.0499 828.49 64.8599 832.03 58.8799C831.97 58.8899 837.21 62.8799 832.83 70.0499Z" fill="#9BC0D7"/>
<path d="M828.891 72C828.891 72 822.251 73.38 818.671 67.38C818.671 67.37 824.671 64.71 828.891 72Z" fill="#9BC0D7"/>
<path d="M839.92 152.92C839.71 152.12 838.08 152.18 837.66 151.75C837.41 151.51 837.87 151.15 838.28 151.1C838.56 151.03 841.13 150.84 842.84 150.39C848.69 149.04 849.86 147.21 849.59 146.43C849.32 145.65 847 145.83 846.52 145.41C846.1 144.97 846.36 144.36 848.27 143.49C850.23 142.61 853.72 141.51 855.77 139.82C857.82 138.13 856.98 137.01 853.78 136.87C852.58 136.7 853.08 135.84 854.71 133.7C856.34 131.57 860.1 125.23 857.81 123.03C855.94 121.45 853.73 123.25 852.44 125.53C851.43 127.26 849.49 130.75 848.53 131.06C846.81 131.69 847.7 128.6 846.54 127.87C845.37 127.14 843.89 129.36 843.46 130.99C843.04 132.62 843.01 135.07 842.59 136.94C842.16 139 841.07 138.56 840.62 138.01C840.23 137.44 839.95 134.78 838.11 134.95C836.51 135.13 835.72 139.53 834.77 142.16C834.42 143.16 833.89 144.16 833.28 145.05C832.91 145.51 832.66 145.46 832.48 145.26C832.16 144.98 831.82 142.75 830.17 142.7C828.71 142.72 828 145.34 826.79 147.91C825.81 149.99 824.06 151.43 822.08 152.68C819.36 154.37 814.92 155.78 814.92 155.78C814.92 155.78 817.39 156.17 819.42 156.24C824.33 156.41 826.69 156.58 831.95 155.75C835.93 155.13 840.08 154.46 839.92 152.92C839.92 152.92 839.93 152.98 839.92 152.92Z" fill="#9BC0D7"/>
<path d="M824.45 154.539C817.1 156.469 810.08 156.609 808.19 156.609V155.699C810.93 155.709 824.97 155.379 834.59 149.379C845.89 142.339 852.37 130.599 852.45 130.449L853.23 130.859C853.15 130.999 846.53 142.899 835.09 150.109C831.81 152.189 828.04 153.599 824.45 154.539Z" fill="#EF90DD"/>
<path d="M504.461 103.22C503.571 101.87 501.741 101.49 500.391 102.39C499.741 102.82 499.291 103.48 499.131 104.26C498.971 105.03 499.121 105.81 499.561 106.47C499.831 106.88 500.421 107.35 500.941 107.43V109.48C500.941 110.07 500.431 111.44 499.001 111.44H493.661V106.19C494.051 106.03 494.421 105.79 494.721 105.44C495.801 104.23 495.691 102.37 494.481 101.29C493.271 100.22 491.411 100.32 490.331 101.53C489.811 102.12 489.551 102.87 489.591 103.65C489.631 104.43 489.981 105.15 490.571 105.67C490.631 105.72 490.691 105.77 490.751 105.82C490.991 106.01 491.261 106.13 491.531 106.23V113.17C491.111 113.33 490.721 113.58 490.401 113.94C489.321 115.15 489.431 117.01 490.641 118.09C490.701 118.14 490.751 118.19 490.821 118.24C492.031 119.16 493.761 119.01 494.791 117.85C495.791 116.72 495.791 114.95 494.771 113.94C494.621 113.79 494.491 113.67 494.381 113.57H499.001C501.831 113.57 503.091 111.17 503.091 109.54V107.53C503.271 107.46 503.461 107.37 503.631 107.26C503.701 107.22 503.761 107.17 503.821 107.12C504.371 106.69 504.741 106.09 504.891 105.39C505.051 104.67 504.901 103.88 504.461 103.22ZM491.191 103.58C491.171 103.22 491.291 102.88 491.531 102.61C492.001 102.08 492.791 102.02 493.341 102.44C493.371 102.46 493.391 102.48 493.421 102.51C493.971 103 494.021 103.85 493.531 104.4C493.041 104.95 492.191 105 491.641 104.51C491.371 104.27 491.211 103.94 491.191 103.58ZM493.601 116.82C493.111 117.37 492.271 117.42 491.711 116.93C491.161 116.44 491.111 115.59 491.601 115.04C492.071 114.51 492.861 114.45 493.411 114.87C493.441 114.89 493.461 114.91 493.491 114.94C494.041 115.42 494.091 116.26 493.601 116.82ZM503.331 105.12C503.261 105.47 503.051 105.77 502.751 105.97C502.451 106.17 502.091 106.24 501.741 106.17C501.391 106.1 501.091 105.89 500.891 105.6C500.691 105.3 500.621 104.94 500.691 104.59C500.761 104.27 500.921 104 501.181 103.8C501.211 103.78 501.241 103.76 501.271 103.74C501.881 103.33 502.721 103.5 503.131 104.12C503.331 104.41 503.401 104.76 503.331 105.12Z" fill="#183D5D"/>
<path d="M553.32 73.4096C553.32 73.4096 561.47 67.1096 557.68 55.8096C557.68 55.8096 553.02 57.4296 553.8 62.3196C554.7 67.8096 554.74 71.1896 553.32 73.4096Z" fill="#93C2DB"/>
<path d="M496.34 82.1291C496.34 82.1291 493.25 88.0491 486.48 85.2791C486.47 85.2791 489.2 78.7291 496.34 82.1291Z" fill="#93C2DB"/>
<path d="M499.311 84.2793C499.311 84.2793 504.141 89.7093 499.301 94.6393C499.301 94.6293 494.181 89.1793 499.311 84.2793Z" fill="#93C2DB"/>
<path d="M567.281 81.1499V76.1299H562.261V81.1499H567.281Z" fill="#93C2DB"/>
<path d="M562.25 86.1792V81.1592H557.23V86.1792H562.25Z" fill="#9C4668"/>
<path d="M501.15 80.3993H505.45L511.13 74.7193L508.98 72.5693L501.15 80.3993Z" fill="#EF90DD"/>
<path d="M550.64 135.12L552.79 132.97L549.73 129.91V129.52C548.62 129.79 547.23 129.98 545.78 130.26L550.64 135.12Z" fill="#EF90DD"/>
<path d="M522.02 101.069L526.32 96.7593V69.8993L518.5 62.0693L518.47 62.0993L518.44 62.0693H514.2L522.02 69.8993V101.069Z" fill="#EF90DD"/>
<path d="M522.021 140.339L516.811 145.559H521.111L526.321 140.339V112.319L534.991 103.639V99.3291L522.011 112.309V140.339H522.021Z" fill="#EF90DD"/>
<path d="M560.16 129.899H555.86L558.47 132.509L553.26 137.729L550.65 140.339L545.44 145.559H549.74L554.95 140.339L557.56 137.729L562.77 132.509L560.16 129.899Z" fill="#EF90DD"/>
<path d="M514.16 62.0993L514.19 62.0693H514.12L514.16 62.0993Z" fill="#FF73FA"/>
<path d="M504.03 127.85H497.04V134.84H504.03V127.85Z" fill="#EF90DD"/>
<path d="M536.201 116.689C538.881 109.529 540.061 108.869 541.021 109.319C541.981 109.769 541.521 112.529 542.031 113.149C542.321 113.509 542.651 113.389 543.151 112.779C543.821 111.159 544.571 109.479 545.441 107.609V69.8993L537.621 62.0693L529.801 69.8993L535.021 75.1193V88.0993L522.041 101.069V69.8993L514.221 62.0693L514.191 62.0993L514.161 62.0693L498.511 77.7293L501.181 80.3993L509.001 72.5693L511.611 75.1793V140.339L516.831 145.559L522.051 140.339V112.319L535.031 99.3393V119.989C535.361 118.939 535.761 117.849 536.201 116.689ZM555.861 129.899L550.641 135.119L545.781 130.249C545.451 130.319 545.121 130.379 544.781 130.449C541.831 131.099 538.821 132.619 536.711 134.789C536.391 135.119 536.071 135.489 535.761 135.879L545.421 145.549L550.641 140.329L553.251 137.719L558.471 132.499L555.861 129.899Z" fill="#9C4668"/>
<path d="M545.43 107.609C545.48 107.499 545.53 107.399 545.58 107.289C547.63 102.909 548.87 101.069 549.74 100.439V69.8993L541.92 62.0693H537.62L545.44 69.8993V107.609H545.43Z" fill="#EF90DD"/>
<path d="M583.75 94.4094C581.02 91.1694 572.42 93.9394 569.24 95.3894C566.07 96.8494 563.91 97.3894 563.83 95.9794C563.63 92.7594 563.5 89.6294 560.83 91.7194C558.16 93.8094 555.97 99.7094 554.38 101.899C552.8 104.089 552.13 104.859 551.67 104.189C551.21 103.529 551.88 100.809 550.96 100.289C550.04 99.7694 548.82 100.329 545.57 107.269C544.64 109.259 543.85 111.049 543.14 112.759C542.64 113.369 542.32 113.489 542.02 113.129C541.51 112.499 541.97 109.739 541.01 109.299C540.05 108.849 538.88 109.509 536.19 116.669C533.83 122.969 532.55 127.219 531.51 133.409C531.07 135.969 530.9 140.269 530.9 140.269C530.9 140.269 533.86 133.979 536.72 131.049C538.83 128.879 541.83 127.369 544.79 126.709C548.33 125.929 551.86 125.839 552.1 124.239C552.41 122.159 549.06 120.479 548.81 120.019C548.68 119.789 548.82 119.419 549.28 119.069C550.61 118.529 551.99 118.159 553.37 117.959C556.96 117.459 560.5 117.649 560.86 116.069C561.33 114.019 558.12 112.079 557.91 111.599C557.7 111.119 558.52 110.169 560.99 110.019C563.46 109.859 569.79 111.949 572.03 111.779C574.27 111.609 575.71 110.169 575.09 108.479C574.46 106.789 569.88 105.789 571.09 103.819C571.76 102.729 576.71 101.239 579.2 100.429C581.26 99.7594 585.98 97.0694 583.75 94.4094Z" fill="#93C2DB"/>
<path d="M529.11 143.08C529.14 142.88 537.33 120.41 551.8 109.54C561.98 101.89 569.69 99.0097 571.51 98.3997C571.73 98.3197 571.97 98.4497 572.02 98.6797C572.07 98.8797 571.96 99.0897 571.76 99.1497C570.07 99.7197 562.43 102.54 552.28 110.18C538.07 120.86 529.92 143.01 529.9 143.2L529.11 143.08Z" fill="#FF8AE2"/>
<path d="M539.93 109.429C540.33 109.139 540.67 109.159 540.98 109.289V73.3193H539.93V87.3993L517.25 110.089V73.3193H516.2V135.649H517.25V111.749L539.93 89.0693V109.429Z" fill="#93C2DB"/>
<path d="M578.03 102.82V75.1797H583.87V86.5797H595.73V75.1797H601.56V102.82H595.73V91.4097H583.87V102.83H578.03V102.82Z" fill="#0F253E"/>
<path d="M612.191 103.22C610.871 103.22 609.691 102.99 608.651 102.52C607.611 102.06 606.801 101.37 606.201 100.46C605.601 99.5498 605.301 98.4098 605.301 97.0398C605.301 95.8898 605.511 94.9198 605.931 94.1398C606.351 93.3598 606.931 92.7298 607.661 92.2498C608.391 91.7698 609.221 91.4098 610.151 91.1698C611.081 90.9298 612.061 90.7599 613.091 90.6599C614.301 90.5399 615.271 90.4199 616.011 90.2999C616.751 90.1899 617.281 90.0198 617.621 89.7898C617.961 89.5598 618.121 89.2298 618.121 88.7898V88.7098C618.121 87.8598 617.851 87.1899 617.321 86.7299C616.781 86.2599 616.031 86.0298 615.051 86.0298C614.011 86.0298 613.191 86.2598 612.581 86.7098C611.971 87.1698 611.561 87.7298 611.371 88.4198L606.051 87.9898C606.321 86.7298 606.851 85.6398 607.641 84.7198C608.431 83.7998 609.461 83.0898 610.711 82.5898C611.961 82.0898 613.421 81.8398 615.081 81.8398C616.231 81.8398 617.341 81.9698 618.391 82.2398C619.451 82.5098 620.391 82.9298 621.211 83.4998C622.031 84.0698 622.681 84.7898 623.161 85.6798C623.641 86.5698 623.871 87.6298 623.871 88.8598V102.84H618.421V99.9598H618.261C617.931 100.61 617.481 101.18 616.921 101.67C616.361 102.16 615.691 102.54 614.911 102.82C614.121 103.08 613.221 103.22 612.191 103.22ZM613.841 99.2498C614.691 99.2498 615.431 99.0798 616.081 98.7398C616.731 98.3998 617.241 97.9499 617.611 97.3699C617.981 96.7899 618.161 96.1399 618.161 95.4099V93.2098C617.981 93.3298 617.741 93.4298 617.421 93.5298C617.111 93.6198 616.761 93.7098 616.371 93.7898C615.981 93.8698 615.601 93.9298 615.211 93.9898C614.821 94.0498 614.471 94.0998 614.161 94.1398C613.491 94.2398 612.901 94.3998 612.391 94.6098C611.891 94.8198 611.491 95.1199 611.221 95.4799C610.941 95.8399 610.801 96.2998 610.801 96.8398C610.801 97.6198 611.091 98.2198 611.661 98.6298C612.231 99.0398 612.961 99.2498 613.841 99.2498Z" fill="#0F253E"/>
<path d="M637.7 103.229C635.58 103.229 633.75 102.779 632.23 101.869C630.7 100.969 629.53 99.7093 628.72 98.0993C627.91 96.4893 627.5 94.6393 627.5 92.5393C627.5 90.4193 627.91 88.5493 628.73 86.9493C629.55 85.3393 630.73 84.0893 632.25 83.1793C633.77 82.2693 635.58 81.8193 637.68 81.8193C639.49 81.8193 641.07 82.1493 642.43 82.8093C643.79 83.4693 644.86 84.3893 645.66 85.5793C646.45 86.7693 646.89 88.1593 646.97 89.7593H641.55C641.4 88.7293 640.99 87.8893 640.34 87.2593C639.69 86.6293 638.84 86.3093 637.78 86.3093C636.89 86.3093 636.11 86.5493 635.45 87.0293C634.79 87.5093 634.27 88.2093 633.9 89.1293C633.53 90.0493 633.35 91.1593 633.35 92.4593C633.35 93.7793 633.53 94.9093 633.9 95.8393C634.27 96.7693 634.78 97.4693 635.45 97.9593C636.12 98.4393 636.89 98.6893 637.78 98.6893C638.44 98.6893 639.03 98.5593 639.55 98.2893C640.08 98.0193 640.51 97.6293 640.86 97.1093C641.21 96.5893 641.43 95.9693 641.54 95.2393H646.96C646.87 96.8193 646.44 98.2193 645.67 99.4193C644.9 100.619 643.84 101.559 642.49 102.229C641.14 102.889 639.54 103.229 637.7 103.229Z" fill="#0F253E"/>
<path d="M650.65 102.82V75.1797H656.4V102.82H650.65ZM655.86 96.8597L655.87 89.9597H656.71L663.35 82.0897H669.95L661.03 92.5097H659.67L655.86 96.8597ZM663.61 102.82L657.51 93.7897L661.34 89.7297L670.34 102.82H663.61Z" fill="#0F253E"/>
<path d="M683.791 82.0899V86.4099H671.301V82.0899H683.791ZM674.141 77.1299H679.891V96.4599C679.891 96.9899 679.971 97.3999 680.131 97.6899C680.291 97.9799 680.521 98.1899 680.811 98.2999C681.101 98.4199 681.441 98.4799 681.831 98.4799C682.101 98.4799 682.371 98.4599 682.641 98.4099C682.911 98.3599 683.121 98.3199 683.261 98.2899L684.161 102.57C683.871 102.66 683.471 102.77 682.951 102.89C682.431 103.01 681.791 103.09 681.051 103.11C679.661 103.16 678.451 102.98 677.411 102.56C676.371 102.14 675.561 101.48 674.991 100.59C674.411 99.6999 674.131 98.5699 674.141 97.2199V77.1299Z" fill="#0F253E"/>
<path d="M696.89 103.23C694.79 103.23 692.98 102.78 691.46 101.89C689.94 101 688.76 99.7398 687.93 98.1398C687.1 96.5398 686.69 94.6699 686.69 92.5499C686.69 90.4099 687.1 88.5298 687.93 86.9298C688.76 85.3198 689.93 84.0698 691.46 83.1798C692.99 82.2798 694.8 81.8398 696.89 81.8398C698.99 81.8398 700.8 82.2898 702.32 83.1798C703.85 84.0698 705.02 85.3198 705.85 86.9298C706.68 88.5398 707.09 90.4099 707.09 92.5499C707.09 94.6699 706.68 96.5398 705.85 98.1398C705.02 99.7398 703.85 101 702.32 101.89C700.8 102.78 698.99 103.23 696.89 103.23ZM696.92 98.7798C697.87 98.7798 698.67 98.5098 699.31 97.9598C699.95 97.4198 700.43 96.6699 700.76 95.7299C701.09 94.7799 701.25 93.7098 701.25 92.4998C701.25 91.2898 701.08 90.2198 700.76 89.2798C700.43 88.3298 699.95 87.5898 699.31 87.0398C698.67 86.4898 697.88 86.2198 696.92 86.2198C695.96 86.2198 695.15 86.4998 694.5 87.0398C693.85 87.5898 693.36 88.3398 693.03 89.2798C692.7 90.2198 692.54 91.2998 692.54 92.4998C692.54 93.6998 692.7 94.7799 693.03 95.7299C693.36 96.6699 693.85 97.4198 694.5 97.9598C695.15 98.4998 695.96 98.7798 696.92 98.7798Z" fill="#0F253E"/>
<path d="M710.961 102.82V75.1797H716.711V85.5697H716.891C717.141 85.0097 717.511 84.4397 717.991 83.8597C718.471 83.2797 719.101 82.7897 719.881 82.3997C720.661 82.0097 721.631 81.8097 722.791 81.8097C724.301 81.8097 725.701 82.1997 726.971 82.9897C728.251 83.7797 729.271 84.9597 730.031 86.5397C730.791 88.1197 731.181 90.0997 731.181 92.4697C731.181 94.7797 730.811 96.7297 730.071 98.3197C729.331 99.9097 728.321 101.11 727.051 101.92C725.781 102.73 724.351 103.14 722.781 103.14C721.661 103.14 720.721 102.96 719.941 102.59C719.161 102.22 718.521 101.75 718.031 101.19C717.531 100.63 717.161 100.06 716.901 99.4797H716.641V102.8H710.961V102.82ZM716.581 92.4597C716.581 93.6897 716.751 94.7697 717.091 95.6897C717.431 96.6097 717.931 97.3197 718.571 97.8297C719.221 98.3397 720.011 98.5897 720.931 98.5897C721.871 98.5897 722.661 98.3297 723.311 97.8097C723.961 97.2897 724.451 96.5697 724.791 95.6497C725.131 94.7297 725.301 93.6597 725.301 92.4597C725.301 91.2597 725.131 90.2097 724.801 89.2997C724.471 88.3897 723.981 87.6797 723.331 87.1697C722.681 86.6597 721.891 86.3997 720.941 86.3997C720.001 86.3997 719.211 86.6497 718.571 87.1397C717.931 87.6297 717.431 88.3397 717.091 89.2497C716.751 90.1597 716.581 91.2297 716.581 92.4597Z" fill="#0F253E"/>
<path d="M744.44 103.229C742.31 103.229 740.47 102.789 738.94 101.929C737.41 101.059 736.23 99.8293 735.4 98.2293C734.57 96.6293 734.16 94.7393 734.16 92.5593C734.16 90.4293 734.57 88.5593 735.4 86.9393C736.23 85.3193 737.4 84.0693 738.9 83.1693C740.41 82.2693 742.18 81.8193 744.21 81.8193C745.58 81.8193 746.85 82.0393 748.04 82.4693C749.22 82.9093 750.26 83.5593 751.14 84.4293C752.03 85.2993 752.72 86.3993 753.21 87.7193C753.7 89.0393 753.95 90.5793 753.95 92.3393V93.9193H736.45V90.3593H748.54C748.54 89.5293 748.36 88.7993 748 88.1593C747.64 87.5193 747.14 87.0193 746.51 86.6493C745.88 86.2893 745.14 86.1093 744.3 86.1093C743.43 86.1093 742.66 86.3093 741.99 86.7093C741.32 87.1093 740.8 87.6493 740.42 88.3193C740.04 88.9893 739.85 89.7393 739.84 90.5493V93.9393C739.84 94.9693 740.03 95.8493 740.41 96.5993C740.79 97.3493 741.33 97.9193 742.04 98.3293C742.74 98.7293 743.57 98.9393 744.54 98.9393C745.18 98.9393 745.76 98.8493 746.29 98.6693C746.82 98.4893 747.28 98.2193 747.65 97.8593C748.03 97.4993 748.32 97.0593 748.51 96.5393L753.83 96.8893C753.56 98.1693 753.01 99.2793 752.18 100.229C751.35 101.179 750.28 101.919 748.97 102.439C747.66 102.969 746.15 103.229 744.44 103.229Z" fill="#0F253E"/>
<path d="M757.711 102.82V82.0898H763.281V85.7098H763.501C763.881 84.4198 764.511 83.4498 765.401 82.7898C766.291 82.1298 767.321 81.7998 768.481 81.7998C768.771 81.7998 769.081 81.8198 769.411 81.8498C769.741 81.8898 770.031 81.9398 770.291 81.9998V87.0998C770.021 87.0198 769.651 86.9498 769.171 86.8798C768.691 86.8198 768.261 86.7898 767.861 86.7898C767.011 86.7898 766.261 86.9698 765.601 87.3398C764.941 87.6998 764.421 88.2098 764.031 88.8598C763.651 89.5098 763.461 90.2498 763.461 91.0998V102.83H757.711V102.82Z" fill="#0F253E"/>
<path d="M784.391 82.0896V86.4097H771.601V82.0896H784.391ZM774.521 102.82V80.5996C774.521 79.0996 774.811 77.8496 775.401 76.8596C775.991 75.8696 776.801 75.1296 777.821 74.6296C778.851 74.1396 780.011 73.8896 781.321 73.8896C782.201 73.8896 783.011 73.9596 783.741 74.0896C784.471 74.2196 785.021 74.3496 785.381 74.4496L784.351 78.7696C784.131 78.6996 783.851 78.6296 783.521 78.5696C783.191 78.5096 782.861 78.4697 782.521 78.4697C781.671 78.4697 781.081 78.6696 780.751 79.0596C780.421 79.4496 780.251 79.9996 780.251 80.6996V102.82H774.521Z" fill="#0F253E"/>
<path d="M797.341 103.229C795.211 103.229 793.371 102.789 791.841 101.929C790.311 101.059 789.131 99.8293 788.301 98.2293C787.471 96.6293 787.061 94.7393 787.061 92.5593C787.061 90.4293 787.471 88.5593 788.301 86.9393C789.131 85.3193 790.301 84.0693 791.801 83.1693C793.311 82.2693 795.081 81.8193 797.111 81.8193C798.481 81.8193 799.751 82.0393 800.941 82.4693C802.121 82.9093 803.161 83.5593 804.041 84.4293C804.931 85.2993 805.621 86.3993 806.111 87.7193C806.601 89.0393 806.851 90.5793 806.851 92.3393V93.9193H789.351V90.3593H801.441C801.441 89.5293 801.261 88.7993 800.901 88.1593C800.541 87.5193 800.041 87.0193 799.411 86.6493C798.781 86.2893 798.041 86.1093 797.201 86.1093C796.331 86.1093 795.561 86.3093 794.891 86.7093C794.221 87.1093 793.701 87.6493 793.321 88.3193C792.941 88.9893 792.751 89.7393 792.741 90.5493V93.9393C792.741 94.9693 792.931 95.8493 793.311 96.5993C793.691 97.3493 794.231 97.9193 794.941 98.3293C795.641 98.7293 796.471 98.9393 797.441 98.9393C798.081 98.9393 798.661 98.8493 799.191 98.6693C799.721 98.4893 800.181 98.2193 800.551 97.8593C800.931 97.4993 801.221 97.0593 801.411 96.5393L806.731 96.8893C806.461 98.1693 805.911 99.2793 805.081 100.229C804.251 101.179 803.181 101.919 801.871 102.439C800.561 102.969 799.051 103.229 797.341 103.229Z" fill="#0F253E"/>
<path d="M827.86 88.0101L822.6 88.3301C822.51 87.8801 822.32 87.4701 822.02 87.1101C821.72 86.7501 821.33 86.4501 820.85 86.2301C820.37 86.0101 819.8 85.9001 819.13 85.9001C818.24 85.9001 817.49 86.0901 816.88 86.4601C816.27 86.8301 815.96 87.3301 815.96 87.9501C815.96 88.4501 816.16 88.8601 816.55 89.2101C816.95 89.5501 817.63 89.8301 818.59 90.0301L822.34 90.7901C824.36 91.2001 825.86 91.8701 826.85 92.7901C827.84 93.7101 828.33 94.9101 828.33 96.4101C828.33 97.7701 827.93 98.9601 827.14 99.9901C826.34 101.02 825.26 101.81 823.87 102.39C822.49 102.96 820.9 103.25 819.1 103.25C816.36 103.25 814.17 102.68 812.55 101.53C810.93 100.38 809.97 98.8201 809.7 96.8401L815.35 96.5401C815.52 97.3801 815.93 98.0101 816.59 98.4501C817.25 98.8901 818.09 99.1001 819.11 99.1001C820.12 99.1001 820.93 98.9001 821.55 98.5101C822.17 98.1201 822.48 97.6101 822.49 96.9901C822.48 96.4701 822.26 96.0401 821.83 95.7001C821.4 95.3601 820.73 95.1001 819.83 94.9201L816.24 94.2101C814.22 93.8001 812.71 93.1001 811.73 92.1001C810.74 91.1001 810.25 89.8301 810.25 88.2801C810.25 86.9501 810.61 85.8001 811.34 84.8401C812.06 83.8801 813.09 83.1301 814.4 82.6101C815.71 82.0901 817.26 81.8301 819.04 81.8301C821.66 81.8301 823.72 82.3801 825.23 83.4901C826.73 84.5901 827.61 86.1001 827.86 88.0101Z" fill="#0F253E"/>
<path d="M842.99 82.0899V86.4099H830.5V82.0899H842.99ZM833.34 77.1299H839.09V96.4599C839.09 96.9899 839.17 97.3999 839.33 97.6899C839.49 97.9799 839.72 98.1899 840.01 98.2999C840.3 98.4199 840.64 98.4799 841.03 98.4799C841.3 98.4799 841.57 98.4599 841.84 98.4099C842.11 98.3599 842.32 98.3199 842.46 98.2899L843.36 102.57C843.07 102.66 842.67 102.77 842.15 102.89C841.63 103.01 840.99 103.09 840.25 103.11C838.86 103.16 837.65 102.98 836.61 102.56C835.57 102.14 834.76 101.48 834.19 100.59C833.61 99.6999 833.33 98.5699 833.34 97.2199V77.1299Z" fill="#0F253E"/>
<path d="M576.98 118.009V113.189H599.68V118.009H591.22V140.829H585.44V118.009H576.98Z" fill="#0F253E"/>
<path d="M609.07 128.849V140.829H603.32V113.189H608.91V123.759H609.15C609.62 122.539 610.37 121.579 611.42 120.879C612.46 120.179 613.77 119.829 615.35 119.829C616.79 119.829 618.05 120.139 619.12 120.769C620.2 121.399 621.03 122.289 621.63 123.459C622.23 124.619 622.52 126.019 622.51 127.639V140.839H616.76V128.669C616.77 127.389 616.45 126.399 615.8 125.689C615.15 124.979 614.24 124.619 613.07 124.619C612.29 124.619 611.6 124.789 611 125.119C610.4 125.449 609.93 125.939 609.6 126.569C609.25 127.189 609.08 127.949 609.07 128.849Z" fill="#0F253E"/>
<path d="M632.96 141.22C631.64 141.22 630.46 140.99 629.42 140.52C628.38 140.06 627.57 139.37 626.97 138.46C626.37 137.55 626.07 136.41 626.07 135.04C626.07 133.89 626.28 132.92 626.7 132.14C627.12 131.36 627.7 130.73 628.43 130.25C629.16 129.77 629.99 129.41 630.92 129.17C631.85 128.93 632.83 128.76 633.86 128.66C635.07 128.54 636.04 128.42 636.78 128.3C637.52 128.19 638.05 128.02 638.39 127.79C638.72 127.57 638.89 127.23 638.89 126.79V126.71C638.89 125.86 638.62 125.19 638.09 124.73C637.55 124.26 636.8 124.03 635.82 124.03C634.78 124.03 633.96 124.26 633.35 124.71C632.74 125.17 632.33 125.73 632.14 126.42L626.82 125.99C627.09 124.73 627.62 123.64 628.41 122.72C629.2 121.8 630.23 121.09 631.48 120.59C632.73 120.09 634.19 119.84 635.85 119.84C637 119.84 638.11 119.97 639.16 120.24C640.22 120.51 641.16 120.93 641.98 121.5C642.8 122.07 643.45 122.79 643.93 123.68C644.41 124.57 644.64 125.63 644.64 126.86V140.84H639.19V137.96H639.03C638.7 138.61 638.25 139.18 637.69 139.67C637.13 140.16 636.46 140.54 635.68 140.82C634.89 141.08 633.99 141.22 632.96 141.22ZM634.61 137.25C635.46 137.25 636.2 137.08 636.85 136.74C637.5 136.4 638.01 135.95 638.38 135.37C638.75 134.79 638.93 134.14 638.93 133.41V131.21C638.75 131.33 638.51 131.43 638.19 131.53C637.88 131.62 637.53 131.71 637.14 131.79C636.75 131.87 636.37 131.93 635.98 131.99C635.59 132.05 635.24 132.1 634.93 132.14C634.26 132.24 633.67 132.4 633.16 132.61C632.66 132.82 632.26 133.12 631.99 133.48C631.71 133.84 631.57 134.3 631.57 134.84C631.57 135.62 631.86 136.22 632.43 136.63C633 137.05 633.73 137.25 634.61 137.25Z" fill="#0F253E"/>
<path d="M652.001 117.429C651.141 117.429 650.411 117.149 649.801 116.579C649.191 116.009 648.881 115.329 648.881 114.529C648.881 113.729 649.191 113.039 649.801 112.469C650.411 111.899 651.141 111.609 651.991 111.609C652.851 111.609 653.591 111.889 654.201 112.459C654.811 113.029 655.111 113.709 655.111 114.509C655.111 115.309 654.811 115.999 654.201 116.569C653.591 117.139 652.861 117.429 652.001 117.429ZM649.101 140.829V120.099H654.851V140.829H649.101Z" fill="#0F253E"/>
<path d="M665.19 113.189V140.829H659.44V113.189H665.19Z" fill="#0F253E"/>
<path d="M675.691 141.22C674.371 141.22 673.191 140.99 672.151 140.52C671.111 140.06 670.301 139.37 669.701 138.46C669.101 137.55 668.801 136.41 668.801 135.04C668.801 133.89 669.011 132.92 669.431 132.14C669.851 131.36 670.431 130.73 671.161 130.25C671.891 129.77 672.721 129.41 673.651 129.17C674.581 128.93 675.561 128.76 676.591 128.66C677.801 128.54 678.771 128.42 679.511 128.3C680.251 128.19 680.781 128.02 681.121 127.79C681.451 127.57 681.621 127.23 681.621 126.79V126.71C681.621 125.86 681.351 125.19 680.821 124.73C680.281 124.26 679.531 124.03 678.551 124.03C677.511 124.03 676.691 124.26 676.081 124.71C675.471 125.17 675.061 125.73 674.871 126.42L669.551 125.99C669.821 124.73 670.351 123.64 671.141 122.72C671.931 121.8 672.961 121.09 674.211 120.59C675.461 120.09 676.921 119.84 678.581 119.84C679.731 119.84 680.841 119.97 681.891 120.24C682.951 120.51 683.891 120.93 684.711 121.5C685.531 122.07 686.181 122.79 686.661 123.68C687.141 124.57 687.371 125.63 687.371 126.86V140.84H681.921V137.96H681.761C681.431 138.61 680.981 139.18 680.421 139.67C679.861 140.16 679.191 140.54 678.411 140.82C677.621 141.08 676.711 141.22 675.691 141.22ZM677.341 137.25C678.191 137.25 678.931 137.08 679.581 136.74C680.231 136.4 680.741 135.95 681.111 135.37C681.481 134.79 681.661 134.14 681.661 133.41V131.21C681.481 131.33 681.241 131.43 680.921 131.53C680.611 131.62 680.261 131.71 679.871 131.79C679.481 131.87 679.101 131.93 678.711 131.99C678.321 132.05 677.971 132.1 677.661 132.14C676.991 132.24 676.401 132.4 675.891 132.61C675.391 132.82 674.991 133.12 674.721 133.48C674.441 133.84 674.301 134.3 674.301 134.84C674.301 135.62 674.591 136.22 675.161 136.63C675.731 137.05 676.451 137.25 677.341 137.25Z" fill="#0F253E"/>
<path d="M697.58 128.85V140.83H691.83V120.1H697.31V123.76H697.55C698.01 122.55 698.78 121.6 699.86 120.89C700.94 120.18 702.25 119.83 703.79 119.83C705.23 119.83 706.48 120.14 707.56 120.78C708.63 121.41 709.46 122.31 710.06 123.47C710.65 124.64 710.95 126.02 710.95 127.63V140.83H705.2V128.66C705.21 127.39 704.89 126.4 704.23 125.69C703.57 124.97 702.67 124.62 701.52 124.62C700.75 124.62 700.06 124.79 699.48 125.12C698.89 125.45 698.43 125.94 698.1 126.57C697.77 127.2 697.59 127.95 697.58 128.85Z" fill="#0F253E"/>
<path d="M723.1 141.17C721.52 141.17 720.1 140.76 718.83 139.95C717.56 139.14 716.55 137.93 715.81 136.35C715.07 134.77 714.7 132.81 714.7 130.5C714.7 128.12 715.08 126.15 715.85 124.57C716.61 122.99 717.63 121.81 718.91 121.02C720.18 120.23 721.58 119.84 723.1 119.84C724.26 119.84 725.23 120.04 726.01 120.43C726.79 120.82 727.42 121.31 727.9 121.89C728.38 122.47 728.75 123.04 729 123.6H729.18V113.21H734.92V140.85H729.25V137.53H729.01C728.74 138.11 728.36 138.68 727.87 139.24C727.38 139.8 726.75 140.27 725.97 140.64C725.19 141.01 724.22 141.17 723.1 141.17ZM724.92 136.59C725.85 136.59 726.63 136.34 727.28 135.83C727.93 135.32 728.42 134.61 728.76 133.69C729.1 132.77 729.28 131.7 729.28 130.46C729.28 129.22 729.11 128.16 728.77 127.25C728.43 126.34 727.93 125.64 727.29 125.14C726.64 124.64 725.85 124.4 724.93 124.4C723.99 124.4 723.19 124.66 722.54 125.17C721.89 125.68 721.4 126.39 721.07 127.3C720.74 128.21 720.57 129.26 720.57 130.46C720.57 131.67 720.74 132.73 721.08 133.65C721.42 134.57 721.91 135.29 722.55 135.81C723.19 136.33 723.98 136.59 724.92 136.59Z" fill="#0F253E"/>
<path d="M796.221 137.819L793.601 135.209L789.251 139.579L786.521 139.589L786.501 129.719L788.841 127.369L789.711 126.499L790.641 125.629L792.441 123.829L792.431 121.099L792.421 116.629L788.541 112.819L783.211 118.179L784.141 119.049L786.811 116.369L788.831 118.439L788.851 125.579L783.411 131.039L782.971 131.479L782.991 140.419L786.531 140.409L792.911 140.399H793.621L796.221 137.819Z" fill="#904B67"/>
<path d="M792.421 121.09L792.431 123.82L790.631 125.62L789.701 126.49L788.831 127.36L786.491 129.71L786.511 139.58H787.981L787.961 129.71L790.301 127.36L791.121 126.49L792.051 125.62L793.851 123.82L793.841 121.09L793.831 116.62L789.951 112.81H788.531L792.411 116.62L792.421 121.09Z" fill="#EF90DD"/>
<path d="M795.071 135.21H793.601L796.221 137.82L793.611 140.39H795.081L797.641 137.82L795.071 135.21Z" fill="#EF90DD"/>
<path d="M787.501 117.119L786.791 116.359L784.121 119.039H785.541L787.501 117.119Z" fill="#EF90DD"/>
<path d="M810.48 128.52L810.49 134.25L806.56 134.26V132.62L806.55 128.31L803.771 128.32L803.75 120.09L798.73 120.1L798.76 132.64L801.32 132.63L801.341 140.7L805.16 140.69H806.581L813.29 140.68L813.281 136.81L813.271 134.25L813.26 128.52H810.48Z" fill="#9BC0D7"/>
<path d="M815.321 119.999L815.311 116.619L811.711 116.629L811.721 120.069H810.471L810.491 128.519L813.271 128.509L813.281 134.239V136.529H815.351L815.341 132.599H817.091L817.061 119.999H815.321Z" fill="#EF90DD"/>
<path d="M812.801 112.92L804.291 112.94V115.01L801.291 115.02L801.301 120.09L803.751 120.08L803.771 128.31L806.551 128.3L806.531 120.07L811.711 120.06L811.701 116.62H812.791L812.801 112.92Z" fill="#904B67"/>
<path d="M758.051 137.899L755.431 135.289L751.081 139.659L748.351 139.669L748.331 129.799L750.671 127.449L751.541 126.579L752.471 125.709L754.271 123.909L754.261 121.179L754.251 116.709L750.371 112.899L745.041 118.259L745.971 119.129L748.641 116.449L750.661 118.519L750.681 125.659L745.241 131.119L744.801 131.559L744.821 140.499L748.361 140.489L754.741 140.479H755.451L758.051 137.899Z" fill="#904B67"/>
<path d="M754.25 121.17L754.26 123.9L752.46 125.7L751.53 126.57L750.66 127.44L748.32 129.79L748.34 139.66H749.81L749.79 129.79L752.13 127.44L752.95 126.57L753.88 125.7L755.68 123.9L755.67 121.17L755.66 116.7L751.78 112.89H750.36L754.24 116.7L754.25 121.17Z" fill="#EF90DD"/>
<path d="M749.331 117.199L748.621 116.439L745.951 119.119H747.371L749.331 117.199Z" fill="#EF90DD"/>
<path d="M756.901 135.29H755.431L758.051 137.9L755.441 140.47H756.911L759.471 137.9L756.901 135.29Z" fill="#EF90DD"/>
<path d="M772.311 128.6L772.321 134.33L768.391 134.34V132.7L768.381 128.39L765.601 128.4L765.581 120.17L760.561 120.18L760.591 132.72L763.151 132.71L763.171 140.78L766.991 140.77H768.411L775.121 140.76L775.111 136.89L775.101 134.33L775.091 128.6H772.311Z" fill="#9BC0D7"/>
<path d="M777.151 120.079L777.141 116.699L773.541 116.709L773.551 120.149H772.301L772.321 128.599L775.101 128.589L775.111 134.319V136.609H777.181L777.171 132.679H778.911L778.881 120.079H777.151Z" fill="#EF90DD"/>
<path d="M774.62 113L766.11 113.02V115.09L763.11 115.1L763.12 120.17L765.57 120.16L765.59 128.39L768.37 128.38L768.35 120.15L773.53 120.14L773.52 116.7H774.61L774.62 113Z" fill="#904B67"/>
<path d="M802.611 116.979C802.791 116.979 802.941 116.829 802.941 116.649C802.941 116.469 802.791 116.319 802.611 116.319C802.431 116.319 802.281 116.469 802.281 116.649C802.281 116.829 802.431 116.979 802.611 116.979Z" fill="#EF90DD"/>
<path d="M808.951 114.569C809.131 114.569 809.281 114.419 809.281 114.239C809.281 114.059 809.131 113.909 808.951 113.909C808.771 113.909 808.621 114.059 808.621 114.239C808.631 114.419 808.771 114.569 808.951 114.569Z" fill="#EF90DD"/>
<path d="M806.48 117.51C806.66 117.51 806.81 117.36 806.81 117.18C806.81 117 806.66 116.85 806.48 116.85C806.3 116.85 806.15 117 806.15 117.18C806.15 117.37 806.3 117.51 806.48 117.51Z" fill="#EF90DD"/>
<path d="M810.141 118.489C810.321 118.489 810.471 118.339 810.471 118.159C810.471 117.979 810.321 117.829 810.141 117.829C809.961 117.829 809.811 117.979 809.811 118.159C809.811 118.339 809.951 118.489 810.141 118.489Z" fill="#EF90DD"/>
<path d="M805.451 119.639C805.631 119.639 805.781 119.489 805.781 119.309C805.781 119.129 805.631 118.979 805.451 118.979C805.271 118.979 805.121 119.129 805.121 119.309C805.121 119.499 805.271 119.639 805.451 119.639Z" fill="#EF90DD"/>
<path d="M805.141 127.279C805.321 127.279 805.471 127.129 805.471 126.949C805.471 126.769 805.321 126.619 805.141 126.619C804.961 126.619 804.811 126.769 804.811 126.949C804.811 127.129 804.961 127.279 805.141 127.279Z" fill="#EF90DD"/>
<path d="M804.641 123.189C804.821 123.189 804.971 123.039 804.971 122.859C804.971 122.679 804.821 122.529 804.641 122.529C804.461 122.529 804.311 122.679 804.311 122.859C804.311 123.039 804.461 123.189 804.641 123.189Z" fill="#EF90DD"/>
<path d="M764.44 117.059C764.62 117.059 764.77 116.909 764.77 116.729C764.77 116.549 764.62 116.399 764.44 116.399C764.26 116.399 764.11 116.549 764.11 116.729C764.11 116.909 764.26 117.059 764.44 117.059Z" fill="#EF90DD"/>
<path d="M766.461 118.58C766.641 118.58 766.791 118.43 766.791 118.25C766.791 118.07 766.641 117.92 766.461 117.92C766.281 117.92 766.131 118.07 766.131 118.25C766.131 118.43 766.281 118.58 766.461 118.58Z" fill="#EF90DD"/>
<path d="M772.281 114.91C772.461 114.91 772.611 114.76 772.611 114.58C772.611 114.4 772.461 114.25 772.281 114.25C772.101 114.25 771.951 114.4 771.951 114.58C771.961 114.77 772.101 114.91 772.281 114.91Z" fill="#EF90DD"/>
<path d="M770.44 117.92C770.62 117.92 770.77 117.77 770.77 117.59C770.77 117.41 770.62 117.26 770.44 117.26C770.26 117.26 770.11 117.41 770.11 117.59C770.11 117.77 770.26 117.92 770.44 117.92Z" fill="#EF90DD"/>
<path d="M766.951 121.8C767.131 121.8 767.281 121.65 767.281 121.47C767.281 121.29 767.131 121.14 766.951 121.14C766.771 121.14 766.621 121.29 766.621 121.47C766.631 121.65 766.771 121.8 766.951 121.8Z" fill="#EF90DD"/>
<path d="M767.27 116.34C767.45 116.34 767.6 116.19 767.6 116.01C767.6 115.83 767.45 115.68 767.27 115.68C767.09 115.68 766.94 115.83 766.94 116.01C766.94 116.2 767.09 116.34 767.27 116.34Z" fill="#EF90DD"/>
<path d="M766.801 126.319C766.981 126.319 767.131 126.169 767.131 125.989C767.131 125.809 766.981 125.659 766.801 125.659C766.621 125.659 766.471 125.809 766.471 125.989C766.471 126.179 766.621 126.319 766.801 126.319Z" fill="#EF90DD"/>
<path fill-rule="evenodd" clip-rule="evenodd" d="M587.39 174.29V170.82C591.1 170.82 593.97 167.18 592.56 163.3C592.04 161.87 590.88 160.72 589.44 160.2C585.54 158.8 581.86 161.64 581.86 165.32H578.36C578.36 159.45 584.07 154.89 590.27 156.8C592.98 157.64 595.13 159.77 595.98 162.46C597.91 168.62 593.3 174.29 587.39 174.29Z" fill="#213D5A"/>
<path fill-rule="evenodd" clip-rule="evenodd" d="M586.841 170.93H583.351V167.47H586.841V170.93ZM583.361 173.59H580.681V170.93H583.361V173.59ZM580.681 170.93H578.431V168.7H580.671V170.93H580.681ZM604.781 162.32H605.811C606.951 162.32 607.891 162.54 608.611 162.98C609.401 163.45 609.801 164.36 609.801 165.66C609.801 167 609.401 167.95 608.601 168.46C607.921 168.91 606.981 169.14 605.821 169.14H604.781V162.32ZM609.961 161.66C608.931 160.95 607.641 160.59 606.131 160.59H602.861V170.89H606.131C607.631 170.89 608.921 170.51 609.961 169.76C610.531 169.36 610.971 168.81 611.281 168.11C611.591 167.42 611.751 166.6 611.751 165.68C611.751 164.77 611.591 163.96 611.281 163.28C610.971 162.58 610.531 162.03 609.961 161.66ZM614.031 160.46C613.721 160.46 613.441 160.57 613.231 160.79C613.011 161 612.901 161.26 612.901 161.58C612.901 161.89 613.011 162.16 613.231 162.38C613.451 162.6 613.721 162.71 614.041 162.71C614.351 162.71 614.631 162.6 614.851 162.38C615.071 162.16 615.181 161.89 615.181 161.58C615.181 161.27 615.071 161 614.851 160.8C614.621 160.57 614.351 160.46 614.031 160.46ZM613.091 170.89H614.931V163.63H613.091V170.89ZM621.141 168.52C620.821 168.88 620.411 169.06 619.881 169.06C619.351 169.06 618.941 168.88 618.621 168.52C618.301 168.16 618.141 167.68 618.141 167.1C618.141 166.51 618.301 166.03 618.621 165.66C618.931 165.3 619.351 165.12 619.881 165.12C620.411 165.12 620.821 165.3 621.141 165.66C621.461 166.02 621.621 166.51 621.621 167.1C621.621 167.68 621.461 168.16 621.141 168.52ZM621.621 164.24C621.061 163.75 620.451 163.46 619.771 163.46C618.751 163.46 617.911 163.81 617.261 164.5C616.601 165.18 616.271 166.06 616.271 167.11C616.271 168.13 616.601 169.01 617.251 169.71C617.901 170.39 618.751 170.73 619.771 170.73C620.481 170.73 621.091 170.53 621.591 170.15V170.32C621.591 170.92 621.431 171.39 621.111 171.71C620.791 172.03 620.351 172.19 619.791 172.19C618.941 172.19 618.411 171.86 617.761 170.99L616.511 172.18L616.541 172.23C616.811 172.61 617.231 172.98 617.771 173.33C618.321 173.68 619.011 173.86 619.821 173.86C620.911 173.86 621.801 173.53 622.451 172.87C623.111 172.21 623.441 171.32 623.441 170.23V163.64H621.631V164.24H621.621ZM625.011 170.89H626.851V163.63H625.011V170.89ZM625.951 160.46C625.641 160.46 625.361 160.57 625.151 160.79C624.931 161 624.821 161.26 624.821 161.58C624.821 161.89 624.931 162.16 625.151 162.38C625.371 162.6 625.641 162.71 625.961 162.71C626.271 162.71 626.551 162.6 626.771 162.38C626.991 162.16 627.101 161.89 627.101 161.58C627.101 161.27 626.991 161 626.771 160.8C626.531 160.57 626.261 160.46 625.951 160.46ZM630.891 161.67H629.081V163.63H628.031V165.29H629.081V168.3C629.081 169.24 629.271 169.92 629.641 170.31C630.021 170.7 630.681 170.9 631.621 170.9C631.921 170.9 632.221 170.89 632.511 170.87L632.591 170.86V169.2L631.961 169.23C631.521 169.23 631.231 169.15 631.091 169C630.951 168.85 630.881 168.52 630.881 168.04V165.28H632.591V163.62H630.881V161.67H630.891ZM641.231 170.89H643.071V160.59H641.231V170.89ZM661.671 168.29C661.341 168.66 661.001 168.97 660.741 169.14C660.491 169.3 660.161 169.38 659.791 169.38C659.251 169.38 658.811 169.18 658.461 168.78C658.111 168.38 657.931 167.86 657.931 167.25C657.931 166.63 658.111 166.12 658.461 165.72C658.811 165.32 659.241 165.12 659.791 165.12C660.381 165.12 661.011 165.49 661.541 166.11L662.761 164.95C661.971 163.93 660.951 163.45 659.751 163.45C658.741 163.45 657.861 163.82 657.151 164.54C656.441 165.25 656.071 166.17 656.071 167.25C656.071 168.33 656.431 169.24 657.141 169.96C657.851 170.68 658.731 171.05 659.751 171.05C661.081 171.05 662.161 170.48 662.881 169.43L661.671 168.29ZM665.211 166.35C665.301 166 665.461 165.71 665.691 165.49C665.941 165.25 666.261 165.12 666.661 165.12C667.111 165.12 667.451 165.25 667.691 165.49C667.911 165.72 668.031 166.01 668.061 166.34L665.211 166.35ZM669.231 164.64C668.971 164.28 668.611 163.99 668.171 163.78C667.731 163.57 667.221 163.46 666.651 163.46C665.621 163.46 664.781 163.84 664.151 164.58C663.541 165.32 663.231 166.23 663.231 167.3C663.231 168.4 663.571 169.31 664.241 170.01C664.911 170.7 665.801 171.05 666.901 171.05C668.141 171.05 669.161 170.55 669.931 169.57L669.971 169.52L668.771 168.38C668.661 168.51 668.501 168.66 668.361 168.8C668.181 168.97 668.011 169.1 667.831 169.19C667.551 169.33 667.251 169.39 666.901 169.39C666.391 169.39 665.971 169.24 665.641 168.95C665.341 168.68 665.161 168.31 665.111 167.85H669.991L670.011 167.18C670.011 166.71 669.951 166.25 669.821 165.83C669.691 165.4 669.491 165 669.231 164.64ZM673.031 168.11C673.241 167.97 673.531 167.89 673.911 167.89C674.351 167.89 674.821 167.98 675.311 168.15V168.86C674.911 169.23 674.381 169.42 673.721 169.42C673.401 169.42 673.151 169.35 672.981 169.21C672.811 169.07 672.731 168.9 672.731 168.68C672.731 168.44 672.831 168.25 673.031 168.11ZM676.301 164.17C675.741 163.7 674.971 163.46 674.011 163.46C673.401 163.46 672.821 163.59 672.311 163.85C671.831 164.09 671.361 164.49 671.061 165.01L671.081 165.03L672.261 166.15C672.751 165.38 673.291 165.12 674.001 165.12C674.381 165.12 674.701 165.22 674.951 165.42C675.191 165.62 675.311 165.88 675.311 166.2V166.55C674.851 166.41 674.401 166.34 673.961 166.34C673.041 166.34 672.301 166.55 671.741 166.98C671.181 167.41 670.891 168.02 670.891 168.8C670.891 169.48 671.131 170.04 671.601 170.45C672.081 170.85 672.681 171.05 673.381 171.05C674.081 171.05 674.741 170.77 675.331 170.29V170.89H677.141V166.22C677.151 165.34 676.861 164.65 676.301 164.17ZM684.231 164.31C683.721 163.74 683.001 163.46 682.091 163.46C681.361 163.46 680.771 163.67 680.321 164.08V163.63H678.511V170.89H680.351V166.89C680.351 166.34 680.481 165.9 680.741 165.59C681.001 165.28 681.361 165.13 681.831 165.13C682.251 165.13 682.561 165.27 682.801 165.54C683.031 165.82 683.151 166.2 683.151 166.68V170.89H685.001V166.68C685.001 165.67 684.741 164.88 684.231 164.31ZM635.651 168.11C635.861 167.97 636.151 167.89 636.531 167.89C636.971 167.89 637.441 167.98 637.931 168.15V168.86C637.531 169.23 637.001 169.42 636.341 169.42C636.021 169.42 635.771 169.35 635.601 169.21C635.431 169.07 635.351 168.9 635.351 168.68C635.351 168.44 635.451 168.25 635.651 168.11ZM638.921 164.17C638.361 163.7 637.591 163.46 636.631 163.46C636.021 163.46 635.441 163.59 634.931 163.85C634.451 164.09 633.981 164.49 633.681 165.01L633.701 165.03L634.881 166.15C635.371 165.38 635.911 165.12 636.621 165.12C637.001 165.12 637.321 165.22 637.571 165.42C637.811 165.62 637.931 165.88 637.931 166.2V166.55C637.471 166.41 637.021 166.34 636.581 166.34C635.661 166.34 634.921 166.55 634.361 166.98C633.801 167.41 633.521 168.02 633.521 168.8C633.521 169.48 633.761 170.04 634.231 170.45C634.711 170.85 635.311 171.05 636.011 171.05C636.711 171.05 637.371 170.77 637.961 170.29V170.89H639.771V166.22C639.761 165.34 639.481 164.65 638.921 164.17ZM649.751 162.29C647.841 162.29 646.281 163.83 646.281 165.73C646.281 167.63 647.841 169.17 649.751 169.17C651.661 169.17 653.221 167.63 653.221 165.73C653.221 163.83 651.671 162.29 649.751 162.29ZM649.751 171.04C646.801 171.04 644.391 168.66 644.391 165.73C644.391 162.8 646.791 160.42 649.751 160.42C652.711 160.42 655.111 162.8 655.111 165.73C655.111 168.66 652.711 171.04 649.751 171.04Z" fill="#213D5A"/>
<path d="M697.65 167.98H698.55V165.78H700.75V164.88H698.55V162.68H697.65V164.88H695.45V165.78H697.65V167.98Z" fill="#213D5A"/>
<path d="M713.65 158.959H711.2V161.409H713.65V158.959Z" fill="#213D5A"/>
<path d="M713.591 171.709V162.899H711.271V171.709H713.591ZM728.99 171.789V169.629C728.65 169.629 728.361 169.609 728.151 169.579C727.911 169.549 727.72 169.459 727.6 169.339C727.48 169.219 727.4 169.039 727.36 168.819C727.33 168.599 727.31 168.309 727.31 167.969V164.889H728.99V162.899H727.31V159.459H724.98V167.989C724.98 168.709 725.04 169.319 725.16 169.809C725.28 170.289 725.491 170.679 725.781 170.979C726.071 171.279 726.45 171.489 726.91 171.619C727.38 171.749 727.97 171.809 728.68 171.809H728.99V171.789ZM742.3 171.709V158.779H739.97V171.709H742.3ZM722.74 163.749C722.1 163.049 721.19 162.699 720.04 162.699C719.48 162.699 718.981 162.809 718.521 163.039C718.071 163.269 717.68 163.579 717.37 163.979L717.24 164.149V163.999V162.889H714.951V171.699H717.26V167.009V167.329C717.26 167.279 717.26 167.229 717.26 167.169C717.29 166.339 717.49 165.729 717.87 165.339C718.28 164.919 718.781 164.709 719.341 164.709C720.011 164.709 720.52 164.919 720.86 165.319C721.19 165.719 721.37 166.289 721.37 167.009V167.029V171.689H723.711V166.689C723.721 165.439 723.39 164.449 722.74 163.749ZM738.771 167.279C738.771 166.639 738.66 166.049 738.44 165.489C738.21 164.939 737.9 164.449 737.51 164.039C737.11 163.619 736.63 163.299 736.07 163.059C735.51 162.819 734.89 162.709 734.22 162.709C733.58 162.709 732.98 162.829 732.43 163.069C731.87 163.309 731.38 163.639 730.98 164.049C730.58 164.459 730.24 164.949 730 165.499C729.76 166.059 729.641 166.659 729.641 167.289C729.641 167.929 729.75 168.529 729.98 169.079C730.21 169.639 730.53 170.129 730.93 170.529C731.33 170.939 731.831 171.269 732.401 171.509C732.971 171.749 733.61 171.879 734.29 171.879C736.26 171.879 737.481 170.979 738.211 170.149L736.54 168.879C736.19 169.299 735.36 169.859 734.31 169.859C733.66 169.859 733.121 169.709 732.711 169.409C732.301 169.109 732.02 168.699 731.87 168.179L731.841 168.099H738.76V167.279H738.771ZM731.86 166.469C731.86 165.829 732.6 164.699 734.19 164.689C735.78 164.689 736.531 165.809 736.531 166.459L731.86 166.469Z" fill="#213D5A"/>
<path d="M754.95 167.98H755.85V165.78H758.05V164.88H755.85V162.68H754.95V164.88H752.75V165.78H754.95V167.98Z" fill="#213D5A"/>
<path d="M783.79 174.36C779.01 173.9 774.23 173.43 769.45 172.97C769.37 172.93 769.28 172.89 769.2 172.85C768.72 172.6 768.46 172.13 768.51 171.6C768.96 166.92 769.41 162.24 769.87 157.56C769.88 157.45 769.91 157.34 769.96 157.24C770.21 156.73 770.73 156.45 771.3 156.51C775.91 156.96 780.53 157.4 785.15 157.85C785.9 157.92 786.43 158.57 786.36 159.32C785.92 163.92 785.47 168.53 785.02 173.13C784.98 173.58 784.76 173.93 784.37 174.15C784.18 174.25 783.98 174.29 783.79 174.36ZM772.31 167.46C772.33 167.47 772.35 167.48 772.36 167.48C772.91 167.53 773.45 167.6 774 167.63C774.66 167.67 775.33 167.13 775.4 166.49C775.51 165.6 775.59 164.71 775.66 163.82C775.71 163.17 775.14 162.5 774.49 162.42C773.96 162.36 773.43 162.31 772.9 162.26C772.87 162.26 772.84 162.26 772.81 162.27C772.64 164.01 772.48 165.73 772.31 167.46ZM779.53 162.91C779.53 162.95 779.52 162.98 779.53 163C779.78 164.49 780.01 165.99 780.27 167.48C780.31 167.69 780.42 167.91 780.55 168.09C780.77 168.39 781.18 168.43 781.45 168.17C781.61 168.02 781.75 167.83 781.83 167.62C782.28 166.47 782.7 165.3 783.13 164.14C783.23 163.86 783.34 163.58 783.44 163.29C783.08 163.26 782.75 163.22 782.4 163.19C781.99 164.32 781.57 165.45 781.16 166.58C781.12 166.51 781.1 166.44 781.09 166.36C780.92 165.28 780.75 164.21 780.57 163.13C780.56 163.08 780.52 163.01 780.49 163C780.17 162.96 779.85 162.94 779.53 162.91ZM777.09 164.83C777.11 164.58 777.13 164.36 777.16 164.13C777.18 163.97 777.16 163.75 777.25 163.66C777.33 163.59 777.55 163.66 777.71 163.67C778.1 163.71 778.48 163.74 778.87 163.78C778.9 163.46 778.93 163.15 778.96 162.84C778.26 162.77 777.58 162.7 776.9 162.65C776.79 162.64 776.65 162.71 776.55 162.77C776.34 162.9 776.29 163.12 776.27 163.34C776.15 164.55 776.04 165.75 775.92 166.96C775.91 167.05 775.91 167.15 775.91 167.24C775.91 167.58 776.14 167.84 776.48 167.87C777.09 167.93 777.69 167.99 778.3 168.05C778.35 168.05 778.41 168.05 778.46 168.06C778.49 167.74 778.52 167.44 778.55 167.12C777.99 167.07 777.45 167.01 776.9 166.96C776.94 166.56 776.98 166.17 777.02 165.77C777.36 165.8 777.69 165.83 778.02 165.87C778.05 165.55 778.08 165.24 778.11 164.92C777.76 164.89 777.44 164.86 777.09 164.83Z" fill="#213D5A"/>
<path d="M773.34 166.62C773.45 165.5 773.55 164.4 773.66 163.3C773.89 163.32 774.13 163.32 774.35 163.37C774.61 163.43 774.73 163.65 774.71 163.95C774.65 164.69 774.58 165.42 774.5 166.16C774.46 166.49 774.26 166.67 773.92 166.66C773.72 166.67 773.54 166.64 773.34 166.62Z" fill="#213D5A"/>
<g clip-path="url(#clip1)">
<path d="M867.93 653.01C866.51 647.6 855.46 648.02 852.62 645.05C850.96 643.42 854.03 640.96 856.83 640.64C858.76 640.13 876.19 638.86 887.79 635.82C927.52 626.64 935.42 614.24 933.62 608.93C931.81 603.62 916.03 604.87 912.8 602C909.95 599.03 911.75 594.84 924.67 588.97C937.98 583 961.64 575.55 975.56 564.05C989.48 552.55 983.77 544.96 962.05 544.05C953.9 542.88 957.32 537.03 968.39 522.56C979.47 508.09 1004.94 465.05 989.46 450.11C976.74 439.4 961.76 451.59 953.02 467.11C946.18 478.82 932.98 502.53 926.51 504.64C914.83 508.94 920.89 487.94 912.98 482.99C905.07 478.04 894.97 493.09 892.1 504.17C889.22 515.25 889.03 531.83 886.17 544.56C883.23 558.55 875.83 555.53 872.78 551.79C870.12 547.94 868.26 529.84 855.77 531.05C844.93 532.24 839.56 562.16 833.08 579.97C830.74 586.78 827.13 593.51 822.94 599.57C820.46 602.7 818.71 602.33 817.53 600.99C815.38 599.08 813.07 583.98 801.82 583.63C791.94 583.74 787.1 601.54 778.87 618.98C772.25 633.11 760.34 642.84 746.87 651.34C728.39 662.8 698.26 672.35 698.26 672.35C698.26 672.35 715.06 674.97 728.83 675.49C762.19 676.66 778.19 677.83 813.89 672.18C840.86 667.96 869.01 663.47 867.93 653.01C867.93 653.01 868.03 653.4 867.93 653.01Z" fill="#9BC0D7"/>
<path d="M762.99 664.01C713.13 677.09 665.46 678.03 652.66 678.08L652.68 671.88C671.29 671.96 766.54 669.69 831.88 629C908.57 581.2 952.53 501.5 953.1 500.53L958.37 503.28C957.8 504.26 912.89 585.03 835.24 633.9C812.91 648.03 787.34 657.63 762.99 664.01Z" fill="#EF90DD"/>
<rect x="442.235" y="234.599" width="445.47" height="445.47" fill="url(#pattern0)"/>
<path d="M469.32 303.87C472.21 296.89 468.98 288.85 462 285.96C459.97 285.23 458.05 284.73 456.11 284.8L444.94 261.11C458.99 268.26 471.62 268.21 480.52 266.82C481.96 268.67 483.74 270.08 485.88 271.04C489.37 272.49 493.01 272.46 496.34 271.17C499.67 269.88 502.35 267.21 503.79 263.72C506.68 256.73 503.45 248.7 496.47 245.81C492.98 244.36 489.34 244.39 486.01 245.68C482.91 246.86 480.58 249.08 478.92 252.11C478.8 252.45 478.68 252.79 478.56 253.12C478.07 254.47 477.59 255.83 477.67 257.19C469.68 258.14 458.1 257.42 445.43 249.62C447.4 243.07 444.27 235.83 437.62 233.06C430.97 230.29 423.29 233.07 420.07 239.37C419.95 239.71 419.83 240.05 419.7 240.39C416.81 247.38 420.04 255.41 427.02 258.3C429.16 259.26 431.2 259.42 433.37 259.24L447.25 288.68C446.32 289.68 445.38 290.68 444.9 292.04C444.78 292.38 444.66 292.72 444.53 293.06C443.08 296.55 443.11 300.19 444.4 303.52C445.69 306.85 448.36 309.53 451.85 310.97C458.28 313.85 466.32 310.63 469.32 303.87ZM485.44 255.79C486.15 254.33 487.21 252.99 488.93 252.46C490.54 251.7 492.25 251.74 493.71 252.46C496.86 253.78 498.37 257.57 497.05 260.73C497.05 260.73 496.93 261.07 496.7 261.18C495.99 262.64 494.94 263.41 493.56 264.06C491.95 264.82 490.24 264.78 488.78 264.06C487.32 263.34 485.98 262.29 485.45 260.57C484.79 259.19 484.83 257.48 485.44 255.79ZM426.47 243.39C427.8 240.24 431.58 238.73 434.74 240.05C437.89 241.37 439.4 245.16 438.08 248.32L437.96 248.66C436.53 251.58 432.86 252.75 430.05 251.55C426.54 250.1 425.14 246.55 426.47 243.39ZM450.96 300.72C450.2 299.11 450.24 297.41 450.96 295.94C452.28 292.79 456.07 291.28 459.23 292.6C462.38 293.92 463.89 297.71 462.56 300.87L462.44 301.21C461.01 304.13 457.34 305.3 454.52 304.1C452.83 303.49 451.38 302.21 450.96 300.72Z" fill="#914B67"/>

</g>
</g>
<defs>
<pattern id="pattern0" patternContentUnits="objectBoundingBox" width="1" height="1">
<use xlink:href="#image0"/>
</pattern>
<clipPath id="clip0">
<rect width="3992.15" height="1154.81" fill="white"/>
</clipPath>
<clipPath id="clip1">
<rect width="824.88" height="716.1" fill="white" transform="translate(260 232)"/>
</clipPath>
<image id="image0" xlink:href="assets/d1.png"/>
</defs>
</svg>
